<?xml version="1.0" encoding="UTF-8"?>
<svg version="1.1" xmlns="http://www.w3.org/2000/svg" width="1254" height="1254">
<path d="M0 0 C1.37841926 -0.00573832 1.37841926 -0.00573832 2.78468537 -0.01159257 C5.87744944 -0.02194695 8.97002869 -0.01792564 12.06280518 -0.01396179 C14.27533643 -0.01830724 16.48786618 -0.02348983 18.70039368 -0.02944946 C24.72377523 -0.04287707 30.74709417 -0.04341335 36.77048779 -0.04088616 C41.80201926 -0.03981776 46.83353801 -0.04469711 51.86506677 -0.04949158 C64.42662375 -0.06123833 76.98814242 -0.06035461 89.54969886 -0.05393478 C100.43227436 -0.04877962 111.31475996 -0.05998201 122.19731769 -0.07903299 C133.38574231 -0.09846801 144.57413431 -0.10636619 155.76257825 -0.10290974 C162.037966 -0.10110138 168.31327166 -0.10368725 174.58864594 -0.11762428 C180.5016618 -0.13026317 186.41449939 -0.12820137 192.32751274 -0.11521339 C194.48849232 -0.11286022 196.64948467 -0.1155367 198.8104496 -0.12383652 C214.10070353 -0.17828802 228.07034515 0.84822921 242.49737549 6.38569641 C243.28773193 6.68500061 244.07808838 6.98430481 244.89239502 7.29267883 C258.68727328 12.67997077 270.79981076 19.74295467 282.12237549 29.26069641 C282.96542236 29.96323547 283.80846924 30.66577454 284.67706299 31.38960266 C306.51458399 50.17575289 321.62758946 78.42603182 324.12237549 107.26069641 C324.90101583 122.60567876 324.30314879 137.68941632 320.05987549 152.51069641 C319.75114502 153.59753723 319.44241455 154.68437805 319.12432861 155.80415344 C315.01367605 169.69099224 308.558382 183.88877874 298.85675049 194.81147766 C296.91156225 197.04646744 296.91156225 197.04646744 297.15753174 199.36225891 C298.32249531 201.65445444 299.63708241 202.92568728 301.55987549 204.63569641 C321.82624828 224.24948475 331.89860172 251.72387363 332.40313721 279.41352844 C332.50246527 291.06241764 332.1351909 301.97894174 329.12237549 313.26069641 C328.85553955 314.34479797 328.58870361 315.42889954 328.31378174 316.54585266 C319.46418427 348.91571364 295.54585731 375.45210124 267.02886963 391.95429993 C245.58397368 403.76561565 222.8689453 406.56403757 198.83380127 406.55122375 C196.58563516 406.5572156 194.33747109 406.56402265 192.08930969 406.57157898 C186.01335382 406.58916839 179.93745435 406.59393106 173.86147547 406.59521055 C170.06357778 406.59663545 166.26569429 406.60091122 162.46780014 406.60620499 C149.89679049 406.62372299 137.32581273 406.63304819 124.75479342 406.63154404 C123.74130221 406.63142417 123.74130221 406.63142417 122.70733643 406.63130188 C122.03084552 406.63122012 121.35435462 406.63113836 120.657364 406.63105412 C109.67225987 406.63023964 98.68729231 406.64942726 87.70222773 406.67757861 C76.40394799 406.70630321 65.10573293 406.71975308 53.80740917 406.71839106 C47.47149005 406.71788094 41.13572606 406.72359357 34.79983902 406.74474716 C28.84893867 406.76407668 22.89834249 406.76429016 16.94743156 406.7497139 C14.76330942 406.74761892 12.57916847 406.75236752 10.39507866 406.76443481 C7.41531883 406.77983376 4.43661517 406.77061461 1.45687866 406.75517273 C0.59151399 406.76545986 -0.27385069 406.77574698 -1.16543853 406.78634584 C-6.54464842 406.72467407 -9.59909203 405.82384611 -13.87762451 402.26069641 C-16.37469639 398.90210918 -16.14256941 395.55269215 -16.16815186 391.4601593 C-16.17486908 390.78485672 -16.1815863 390.10955414 -16.18850708 389.41378784 C-16.20746684 387.18690078 -16.21141 384.96031535 -16.21356201 382.73335266 C-16.21999071 381.1816292 -16.22671913 379.62990696 -16.23373413 378.07818604 C-16.24570134 374.82755218 -16.24941547 371.57702457 -16.24822998 368.32637024 C-16.24802667 364.16553377 -16.27534298 360.0053794 -16.3097744 355.84470463 C-16.33203389 352.64046105 -16.33606785 349.43638199 -16.33501053 346.23206902 C-16.33736738 344.69828882 -16.34619576 343.16450414 -16.36167526 341.63080025 C-16.38132006 339.48359261 -16.3755053 337.33786054 -16.36346436 335.19062805 C-16.36631439 333.97025345 -16.36916443 332.74987885 -16.37210083 331.49252319 C-15.78397242 327.64859967 -14.57745506 326.00530976 -11.87762451 323.26069641 C-9.24814908 321.9459587 -6.99633086 321.96309784 -4.06512451 321.76069641 C1.59058186 321.39861392 1.59058186 321.39861392 7.12237549 320.26069641 C8.44719095 317.86539972 8.44719095 317.86539972 9.12237549 315.26069641 C9.45237549 314.60069641 9.78237549 313.94069641 10.12237549 313.26069641 C10.19307411 311.37124837 10.20703377 309.47953726 10.19268799 307.58882141 C10.20300049 306.44929016 10.21331299 305.30975891 10.22393799 304.13569641 C10.23946172 301.73469222 10.23195265 299.33341978 10.20050049 296.93257141 C10.21854736 295.78788391 10.23659424 294.64319641 10.25518799 293.46382141 C10.25406006 292.41871399 10.25293213 291.37360657 10.25177002 290.29682922 C11.34372017 286.48878323 12.82983724 284.8301736 15.93017578 282.4294281 C20.0734869 280.22049659 24.27377727 280.42669699 28.87628174 280.49897766 C30.40490089 280.49392464 30.40490089 280.49392464 31.96440125 280.48876953 C34.11012846 280.48906743 36.25589933 280.50422707 38.40142822 280.53340149 C41.67887551 280.57312369 44.95228209 280.55407787 48.22979736 280.52827454 C50.32030779 280.53583307 52.41080927 280.54678595 54.50128174 280.56147766 C55.47642227 280.55449356 56.45156281 280.54750946 57.45625305 280.54031372 C61.95863389 280.6334511 65.1402616 280.78429699 68.72369385 283.67939758 C72.3952936 287.63052473 72.26741532 289.76357277 72.36846924 295.09663391 C72.40141112 296.48466097 72.43462271 297.87268165 72.46807861 299.26069641 C72.51545761 301.44847679 72.55988511 303.63623193 72.59918213 305.82417297 C72.63898936 307.93610166 72.69051442 310.04749965 72.74346924 312.15913391 C72.76852539 313.42418762 72.79358154 314.68924133 72.81939697 315.99263 C73.10071733 319.02708151 73.42561126 320.76689308 75.12237549 323.26069641 C77.69895026 324.5489838 79.54133151 324.38948387 82.42744446 324.39440918 C83.55309814 324.39867416 84.67875183 324.40293915 85.83851624 324.40733337 C87.70004585 324.40665359 87.70004585 324.40665359 89.59918213 324.40596008 C90.90174957 324.4093187 92.20431702 324.41267731 93.5463562 324.4161377 C97.12731105 324.42499112 100.70824201 324.42731651 104.28920674 324.42795348 C106.52822509 324.42866379 108.76723736 324.43079786 111.0062542 324.4334507 C118.82320415 324.44271201 126.64013703 324.44678504 134.45709229 324.44599915 C141.7324069 324.44539972 149.00764704 324.45592294 156.28294283 324.47174281 C162.53445567 324.48484971 168.78594429 324.49018165 175.03747076 324.48954374 C178.76850239 324.48928946 182.49946801 324.49210092 186.23048592 324.50272179 C190.40031067 324.51426622 194.56997073 324.50963671 198.73980713 324.50361633 C199.96665726 324.50923584 201.19350739 324.51485535 202.45753479 324.52064514 C215.92914529 324.47131138 228.42256654 321.41649448 238.59893799 311.95991516 C244.57379418 305.29565248 249.56726497 297.31692799 250.12237549 288.26069641 C250.23645752 286.70802063 250.23645752 286.70802063 250.35284424 285.12397766 C250.70892414 276.3759606 249.25675211 269.96514755 245.12237549 262.26069641 C244.77303955 261.5942511 244.42370361 260.92780579 244.06378174 260.24116516 C238.17781732 250.68994818 227.04961505 245.3571333 216.51792145 242.71427917 C208.89156562 241.27027283 200.97212937 241.63014142 193.24367905 241.69967651 C189.79622495 241.73004847 186.34999827 241.72864992 182.9024353 241.71955872 C175.60058871 241.70573667 168.29915455 241.73032485 160.99737549 241.76069641 C152.49533605 241.79587535 143.99389374 241.81511369 135.49179459 241.79257202 C132.09845493 241.79195485 128.70620279 241.82110862 125.3130188 241.85139465 C123.23888962 241.84932097 121.1647612 241.84585692 119.09063721 241.84077454 C117.68020897 241.86549583 117.68020897 241.86549583 116.24128723 241.89071655 C111.66977735 241.84829133 109.7592957 241.76249963 106.06185913 238.84944153 C103.13110217 234.93758447 102.98378823 232.92104791 102.92950439 228.05439758 C102.91344147 226.74931747 102.89737854 225.44423737 102.88082886 224.09960938 C102.86934205 222.66763458 102.8587334 221.23565252 102.84893799 219.80366516 C102.84361431 219.08359095 102.83829063 218.36351673 102.83280563 217.62162209 C102.80607872 213.80983673 102.78670293 209.99808406 102.77227783 206.18623352 C102.75563566 202.25167827 102.7108618 198.3179616 102.65990639 194.38372326 C102.62622676 191.3562119 102.61469975 188.32889937 102.60905075 185.30121803 C102.60233952 183.85112923 102.5871204 182.40105345 102.56315994 180.95114708 C102.53150139 178.91938818 102.53447383 176.88717959 102.53887939 174.85517883 C102.53079254 173.69983139 102.52270569 172.54448395 102.51437378 171.35412598 C103.30335155 167.33991496 105.05903311 165.86844003 108.12237549 163.26069641 C108.45237549 162.93069641 108.78237549 162.60069641 109.12237549 162.26069641 C112.04683884 162.15132435 114.94854736 162.10645914 117.87384033 162.10298157 C118.79265991 162.09790085 119.71147949 162.09282013 120.65814209 162.08758545 C122.66231699 162.07685316 124.66650409 162.06824429 126.67069626 162.06146622 C129.84952835 162.04969889 133.02822325 162.03024727 136.20700073 162.00834656 C145.24856951 161.94668874 154.29012796 161.89284466 163.33184814 161.85932922 C168.85742396 161.83829348 174.3827559 161.80290781 179.90819168 161.75857162 C182.00913225 161.74446925 184.11011605 161.7357023 186.21110153 161.73251724 C201.43891054 161.88173965 201.43891054 161.88173965 216.12237549 158.26069641 C217.11753174 157.88429016 218.11268799 157.50788391 219.13800049 157.12007141 C229.27596521 152.08653648 236.12542196 144.40010307 239.93487549 133.69819641 C242.70780116 123.35550238 242.33354171 112.67963661 237.12237549 103.26069641 C236.68667236 102.46921204 236.25096924 101.67772766 235.80206299 100.86225891 C230.10616461 91.49359547 220.86795147 85.62462152 210.38356781 82.69393349 C205.46567034 81.75168037 200.4308841 81.97561391 195.44171143 81.98603821 C193.54546021 81.97837181 193.54546021 81.97837181 191.61090088 81.97055054 C188.16078106 81.95721901 184.71077115 81.95657476 181.26063061 81.95911384 C178.37757245 81.96018644 175.49453628 81.95529336 172.61148286 81.95050842 C165.81333904 81.93943584 159.01525051 81.93896467 152.21710205 81.94502258 C145.20338198 81.95107622 138.18986181 81.93871118 131.17617583 81.91745251 C125.14884848 81.89985526 119.1215849 81.89383174 113.0942328 81.89709026 C109.49645938 81.89890454 105.89882894 81.89625162 102.3010788 81.88237572 C98.29573985 81.86750307 94.29081102 81.87675081 90.28546143 81.88838196 C89.09164856 81.88073822 87.89783569 81.87309448 86.66784668 81.86521912 C85.03607483 81.87574059 85.03607483 81.87574059 83.37133789 81.88647461 C82.4245303 81.88630687 81.4777227 81.88613913 80.50222397 81.8859663 C78.07473949 82.07964806 78.07473949 82.07964806 76.31755352 83.6003418 C74.41798372 86.23924529 74.75091083 88.63298567 74.753479 91.84004211 C74.74971252 92.50383881 74.74594604 93.1676355 74.74206543 93.85154724 C74.73563339 95.2920217 74.73596264 96.73253859 74.74225044 98.17301369 C74.75136013 100.45612532 74.74113816 102.73841549 74.72563171 105.02148438 C74.68553458 111.51193445 74.68432543 118.00232083 74.68658447 124.49287415 C74.68663568 128.46466689 74.66741273 132.43601833 74.6372509 136.40769005 C74.62645093 138.65132847 74.63854233 140.89411504 74.65107727 143.13772583 C74.64216808 144.52288137 74.63209203 145.90803005 74.6206665 147.29316711 C74.62083267 148.49657242 74.62099884 149.69997772 74.62117004 150.93984985 C74.02064692 154.93797918 72.62395029 157.12212907 70.12237549 160.26069641 C67.58168744 161.53104044 65.7702594 161.4084559 62.92584229 161.43769836 C61.84099045 161.4505336 60.75613861 161.46336884 59.63841248 161.47659302 C58.46136246 161.48397995 57.28431244 161.49136688 56.07159424 161.49897766 C54.86550003 161.50704941 53.65940582 161.51512115 52.41676331 161.5234375 C49.86039675 161.53728741 47.30401163 161.54800549 44.74761963 161.55586243 C40.83637495 161.57307976 36.92597427 161.61696017 33.01495361 161.66108704 C30.53384005 161.67121321 28.05271929 161.67972955 25.57159424 161.68647766 C24.40061691 161.70398575 23.22963959 161.72149384 22.0231781 161.73953247 C13.89533132 161.71780316 13.89533132 161.71780316 9.90679932 159.35908508 C7.13221898 156.09632438 6.98028823 154.17019793 6.87628174 149.95600891 C6.84341064 148.8976886 6.81053955 147.83936829 6.77667236 146.74897766 C6.71569035 144.51470034 6.65837231 142.28031987 6.60479736 140.04585266 C6.57063721 138.98495422 6.53647705 137.92405579 6.50128174 136.83100891 C6.47622559 135.85921692 6.45116943 134.88742493 6.425354 133.88618469 C5.99053875 130.11825298 5.01819815 128.01654678 2.12237549 125.57319641 C-1.47119026 124.00101139 -4.48594266 123.89874343 -8.37762451 123.86225891 C-12.20438247 122.94144528 -13.49430314 121.39062447 -15.87762451 118.26069641 C-16.61971955 114.70477581 -16.55056777 111.20469433 -16.50872803 107.58296204 C-16.51588333 106.50761703 -16.52303864 105.43227203 -16.53041077 104.32434082 C-16.54731282 100.77144326 -16.5278848 97.21980474 -16.50653076 93.66694641 C-16.50735931 91.19742224 -16.50981817 88.72789811 -16.51383972 86.25837708 C-16.51669878 81.08336279 -16.50198507 75.90878105 -16.47454834 70.73384094 C-16.4404662 64.09901545 -16.44648321 57.46496353 -16.46521091 50.83010101 C-16.47577727 45.73086597 -16.46684622 40.63181106 -16.4518261 35.53259277 C-16.4466412 33.08615656 -16.44712978 30.63970157 -16.45337105 28.19326782 C-16.45881856 24.77457703 -16.43846102 21.35699525 -16.41107178 17.93843079 C-16.41759766 16.92633041 -16.42412354 15.91423004 -16.43084717 14.87145996 C-16.37183056 10.5412944 -16.31314026 7.97852389 -14.03178406 4.21833801 C-9.41808389 0.0255328 -5.96945473 -0.02610339 0 0 Z " fill="#022B8F" transform="translate(229.87762451171875,418.7393035888672)"/>
<path d="M0 0 C1.59400635 -0.01467567 1.59400635 -0.01467567 3.22021484 -0.02964783 C6.71971403 -0.05944584 10.21917569 -0.08093665 13.71875 -0.09985352 C14.91717529 -0.10642534 16.11560059 -0.11299717 17.3503418 -0.11976814 C23.6866742 -0.15228362 30.02299027 -0.17676075 36.359375 -0.19628906 C41.59920576 -0.21413878 46.83850212 -0.24903019 52.078125 -0.29882812 C58.4145446 -0.35896834 64.7504668 -0.38975474 71.0871582 -0.39946175 C73.49851277 -0.4080218 75.90985382 -0.42685319 78.32104492 -0.45620537 C81.69378911 -0.49507322 85.06458541 -0.49616055 88.4375 -0.48828125 C89.92612549 -0.51828217 89.92612549 -0.51828217 91.44482422 -0.54888916 C97.37884822 -0.48671034 100.61584194 0.47776861 104.93034363 4.62777615 C108.82940114 9.41219047 108.9483912 15.73364682 108.84765625 21.65014648 C107.62845628 28.54884942 103.31112413 33.71304826 99.21875 39.20874023 C98.40276781 40.3507915 97.59022303 41.4953071 96.78125 42.64233398 C95.14543802 44.9574043 93.49456037 47.26044666 91.83203125 49.55639648 C88.99334986 53.49607688 86.26461794 57.50814421 83.53125 61.52124023 C72.12885574 78.18505619 72.12885574 78.18505619 67.21875 81.20874023 C64.31286621 81.57382202 64.31286621 81.57382202 60.89648438 81.56176758 C58.97298157 81.56725113 58.97298157 81.56725113 57.01062012 81.57284546 C55.98550575 81.56564547 55.98550575 81.56564547 54.93968201 81.55830002 C52.78504478 81.54450191 50.63132289 81.55103646 48.47668457 81.56314087 C42.35190833 81.59399946 36.22734438 81.58938982 30.10253906 81.5690918 C26.34994552 81.55807168 22.59803453 81.57158715 18.84553528 81.59898758 C17.42642124 81.60437339 16.00723657 81.60050642 14.58818054 81.58658981 C1.03334607 81.45533604 -9.84005827 84.7175613 -19.78125 94.20874023 C-21.76462288 96.40570712 -23.30086218 98.65071716 -24.78125 101.20874023 C-25.173125 101.79397461 -25.565 102.37920898 -25.96875 102.98217773 C-29.02714936 108.35561549 -29.16913885 113.66902004 -29.21875 119.70874023 C-29.2288208 120.50376953 -29.2388916 121.29879883 -29.24926758 122.11791992 C-29.0875043 133.26467204 -24.6478909 141.88657192 -17.12109375 149.99780273 C-8.11120771 158.30478987 3.05928679 161.51095742 15.05883789 161.49584961 C15.90397949 161.50268265 16.74912109 161.50951569 17.61987305 161.51655579 C19.44273822 161.53007044 21.26564051 161.53917058 23.08854866 161.54426575 C25.98766525 161.55262359 28.88647706 161.57319533 31.7855072 161.59680176 C37.95070886 161.64485392 44.11594165 161.67784758 50.28125 161.70874023 C57.40856347 161.74460988 64.53572859 161.78690527 71.66290092 161.84468079 C74.49363705 161.86448123 77.32425428 161.87301598 80.15504456 161.88098145 C114.82597924 162.08316358 145.37034624 173.44010663 170.21875 198.20874023 C182.67880791 211.55467552 194.42691954 229.36952052 197.78125 247.52124023 C198.0299005 248.83895752 198.27859852 250.15666583 198.52734375 251.47436523 C198.86958984 253.32288086 198.86958984 253.32288086 199.21875 255.20874023 C199.59021134 257.06361907 199.96465884 258.91790569 200.34375 260.77124023 C200.64398092 262.24869239 200.93546744 263.72794502 201.21875 265.20874023 C201.39664062 266.07756836 201.57453125 266.94639648 201.7578125 267.84155273 C203.692176 281.97224206 202.43658286 296.3860495 199.21875 310.20874023 C198.96351563 311.33795898 198.70828125 312.46717773 198.4453125 313.63061523 C194.49521213 329.0686222 187.96191245 344.55208844 178.21875 357.20874023 C177.54457031 358.10206055 176.87039063 358.99538086 176.17578125 359.91577148 C161.49513986 378.60751708 145.13357816 390.31143943 123.21875 399.20874023 C122.23261719 399.63026367 121.24648437 400.05178711 120.23046875 400.48608398 C103.64550363 407.15530364 86.04830682 406.62804877 68.50366211 406.54931641 C65.84108063 406.54846873 63.17852391 406.54881646 60.51594543 406.55064392 C54.81673344 406.55220587 49.11762565 406.54291078 43.41843987 406.5259304 C35.17871187 406.50139682 26.9390335 406.49372058 18.69927294 406.48996643 C5.32609817 406.48342427 -8.04702125 406.46352429 -21.42016602 406.43505859 C-34.39965542 406.4074598 -47.3791297 406.38625483 -60.35864258 406.37353516 C-61.16066508 406.37274699 -61.96268759 406.37195882 -62.78901381 406.37114676 C-66.81311217 406.36723123 -70.83721063 406.36344021 -74.86130917 406.35971105 C-108.16799639 406.32868488 -141.47461574 406.27591059 -174.78125 406.20874023 C-172.62642352 404.00349153 -170.5347411 402.27710107 -167.9375 400.60717773 C-167.19113281 400.121604 -166.44476562 399.63603027 -165.67578125 399.13574219 C-164.88558594 398.62358154 -164.09539063 398.1114209 -163.28125 397.58374023 C-153.17534491 390.93517132 -144.12998053 383.55569948 -135.19140625 375.39624023 C-132.20238879 372.68335567 -129.14800857 370.04901311 -126.08203125 367.42358398 C-120.25583257 361.81500224 -115.24961263 355.43378626 -110.34375 349.02124023 C-109.50287842 347.92573853 -109.50287842 347.92573853 -108.64501953 346.80810547 C-104.47505081 341.29997662 -100.8009347 335.64046093 -97.3671875 329.65014648 C-95.78125 327.20874023 -95.78125 327.20874023 -92.78125 325.20874023 C-89.7125864 324.95540714 -89.7125864 324.95540714 -85.8575592 324.95045471 C-85.14884106 324.94677901 -84.44012291 324.9431033 -83.70992845 324.93931621 C-81.3287631 324.92931523 -78.94783033 324.93349126 -76.56665039 324.9375 C-74.86155956 324.93311386 -73.15647088 324.92781211 -71.4513855 324.92166138 C-67.77476249 324.91014672 -64.09819722 324.90470084 -60.42155647 324.90377998 C-54.60011172 324.90184007 -48.77878616 324.88378836 -42.9573822 324.86302185 C-28.48952506 324.81381016 -14.02163531 324.78300616 0.44628906 324.76171875 C11.67455985 324.74516757 22.90272902 324.72225341 34.13093191 324.678698 C39.90891392 324.65699588 45.68670259 324.64885704 51.46472251 324.65109074 C55.07523319 324.64941456 58.68561963 324.63530733 62.29608536 324.61787796 C63.96003496 324.61231538 65.62401074 324.61175882 67.28796196 324.61681557 C83.64399861 324.66127591 96.50535526 322.25608881 109.03125 311.02124023 C117.68283977 301.78733192 120.75852815 289.80455899 120.53125 277.51733398 C119.64456485 268.12955494 115.19700978 259.1088659 108.4765625 252.49389648 C99.64899156 245.29631271 89.07726041 242.05939666 77.88037109 242.06689453 C77.04063248 242.0634201 76.20089386 242.05994568 75.33570862 242.05636597 C73.51166825 242.0490178 71.68761899 242.04366741 69.86356735 242.0400753 C66.95980475 242.03287873 64.05620811 242.01718266 61.15249634 241.99873352 C52.89563455 241.94645515 44.63885919 241.8984357 36.38183594 241.8828125 C31.32602665 241.87262129 26.2706298 241.84300926 21.21498489 241.80149269 C19.30404433 241.78932321 17.39304509 241.78403519 15.48206711 241.78629112 C-14.6619234 241.81308762 -41.55059085 232.50567444 -64.78125 213.20874023 C-65.60367188 212.5397168 -66.42609375 211.87069336 -67.2734375 211.18139648 C-73.23240938 206.13998256 -78.02424758 200.37585408 -82.78125 194.20874023 C-83.461875 193.35538086 -84.1425 192.50202148 -84.84375 191.62280273 C-99.53922411 172.50720555 -107.81286658 148.18356602 -108.78125 124.20874023 C-108.83410156 122.95963867 -108.88695312 121.71053711 -108.94140625 120.42358398 C-109.80300122 89.65654324 -100.16351675 59.04538793 -78.82226562 36.41137695 C-77.47849092 35.00739893 -76.13002368 33.60791652 -74.78125 32.20874023 C-74.19730469 31.56163086 -73.61335937 30.91452148 -73.01171875 30.24780273 C-54.84788894 10.65845716 -26.21111416 0.15400466 0 0 Z " fill="#01A4F9" transform="translate(923.78125,418.791259765625)"/>
<path d="M0 0 C14.48376006 -0.07060972 28.96749684 -0.12323916 43.45139503 -0.15543652 C50.17908599 -0.1707949 56.90665305 -0.19205674 63.63427734 -0.22631836 C70.14418029 -0.2592583 76.65397192 -0.27692499 83.16395187 -0.28463173 C85.62985355 -0.29011377 88.09575014 -0.30081572 90.56160355 -0.31719017 C114.63718867 -0.47049608 138.27151454 1.47212198 161 10 C162.05832031 10.38542969 163.11664062 10.77085937 164.20703125 11.16796875 C189.67272075 20.84981236 210.85393024 35.71559159 230 55 C230.48791016 55.49064941 230.97582031 55.98129883 231.47851562 56.48681641 C248.30801728 73.65120322 260.62775722 94.997783 270 117 C270.45584473 118.06492676 270.45584473 118.06492676 270.92089844 119.15136719 C282.2357726 146.16457264 285.10189277 174.4587762 285.25 203.4375 C285.25553894 204.14407745 285.26107788 204.85065491 285.26678467 205.5786438 C285.56122851 256.89183492 266.29063064 306.29126337 233 345 C232.16984375 345.96550781 231.3396875 346.93101562 230.484375 347.92578125 C220.98397245 358.73640222 210.09795079 368.18945858 198 376 C197.02933594 376.63292969 196.05867187 377.26585937 195.05859375 377.91796875 C165.73362278 396.52043499 133.37544613 407.24061904 98.54003906 407.11352539 C97.46539398 407.11367142 96.3907489 407.11381744 95.28353882 407.1139679 C91.77754606 407.11327849 88.27160832 407.10553219 84.765625 407.09765625 C82.31654896 407.09578861 79.86747254 407.09436634 77.418396 407.09336853 C71.006988 407.08957059 64.59560306 407.07976386 58.1842041 407.06866455 C51.62801424 407.05839158 45.07182061 407.05385835 38.515625 407.04882812 C25.67707356 407.03813889 12.83853801 407.02129081 0 407 C3.06709804 403.92904549 6.14664332 400.87393629 9.2578125 397.84765625 C18.59173402 388.70047061 27.29607592 379.55820812 35 369 C35.69996094 368.08347656 36.39992188 367.16695312 37.12109375 366.22265625 C45.20096922 355.49673969 51.76346379 343.94977226 57.4921875 331.828125 C58.86442076 329.25429889 59.77030242 327.80330343 62 326 C63.9210968 325.63491821 63.9210968 325.63491821 66.12231445 325.64697266 C67.36791893 325.64116432 67.36791893 325.64116432 68.63868713 325.63523865 C69.53780319 325.64475052 70.43691925 325.65426239 71.36328125 325.6640625 C73.29264782 325.65552075 75.22201008 325.64596108 77.15136719 325.63549805 C78.15921265 325.63464203 79.16705811 325.63378601 80.20544434 325.63290405 C112.26673444 325.55134319 137.3392469 320.63213289 163 300 C163.72960937 299.42507813 164.45921875 298.85015625 165.2109375 298.2578125 C174.28837211 290.75906217 180.84046405 281.12201595 187 271.20703125 C188.13252152 269.3910153 189.2852253 267.58627476 190.5 265.82421875 C194.6559942 259.75906472 196.69261295 252.92930476 199 246 C199.44982302 244.71544376 199.90165528 243.4315894 200.35546875 242.1484375 C200.80008592 240.87000252 201.24411277 239.59136206 201.6875 238.3125 C202.08324219 237.17425781 202.47898437 236.03601563 202.88671875 234.86328125 C205.80802505 225.33501534 206.28999983 216.0405101 206.1875 206.125 C206.18685547 204.94808594 206.18621094 203.77117187 206.18554688 202.55859375 C206.12896344 191.12874069 205.86923662 180.07914559 202.375 169.125 C201.97849243 167.84991577 201.97849243 167.84991577 201.57397461 166.54907227 C192.43439645 138.11571912 173.87227859 114.28334262 149 98 C148.03578125 97.35160156 147.0715625 96.70320312 146.078125 96.03515625 C132.35207625 87.37106194 115.61380739 82.7289092 99.453125 82.69140625 C97.45442384 82.66627218 95.45572599 82.64087382 93.45703125 82.61523438 C90.34099004 82.58640496 87.22500576 82.56235042 84.10888672 82.54370117 C81.07752346 82.52206556 78.0467754 82.48266233 75.015625 82.44140625 C74.08534485 82.44129044 73.1550647 82.44117462 72.19659424 82.4410553 C67.36883482 82.36716444 63.84664948 82.26693841 60 79 C58.69921875 75.98828125 58.69921875 75.98828125 57.6875 72.3125 C52.06649328 53.56893088 41.48898469 37.9756003 28 24 C27.28199219 23.21882813 26.56398438 22.43765625 25.82421875 21.6328125 C18.72648042 14.12070527 9.55991629 6.21406889 0 2 C0 1.34 0 0.68 0 0 Z " fill="#0160EE" transform="translate(533,418)"/>
<path d="M0 0 C0.26464295 8.61559839 -0.15423714 17.04862451 -0.9375 25.625 C-1.02435059 26.58486816 -1.11120117 27.54473633 -1.20068359 28.53369141 C-1.86820003 35.4963444 -1.86820003 35.4963444 -2.49525452 37.89254761 C-3.35037446 41.46291057 -3.46332584 45.12794859 -3.71875 48.78125 C-3.78155151 49.63174927 -3.84435303 50.48224854 -3.90905762 51.35852051 C-4.10935014 54.07211696 -4.30521552 56.78600295 -4.5 59.5 C-4.75645122 63.0732204 -5.01744031 66.64606618 -5.28125 70.21875 C-5.338573 71.03863403 -5.395896 71.85851807 -5.45495605 72.70324707 C-5.71719016 76.24964233 -6.12540346 79.56240474 -7 83 C-7.21373794 85.24170183 -7.38732659 87.48736424 -7.53515625 89.734375 C-7.62216797 91.02988281 -7.70917969 92.32539063 -7.79882812 93.66015625 C-7.88679728 95.02343243 -7.9746869 96.38671375 -8.0625 97.75 C-8.15396449 99.12892834 -8.24575775 100.50783491 -8.33789062 101.88671875 C-8.5618311 105.25761226 -8.7824043 108.62869196 -9 112 C-12.69026183 110.8556996 -15.92558557 109.63437963 -19.19921875 107.58203125 C-19.93333984 107.13279297 -20.66746094 106.68355469 -21.42382812 106.22070312 C-22.94665113 105.2733732 -24.46745546 104.32279135 -25.98632812 103.36914062 C-26.71658203 102.92376953 -27.44683594 102.47839844 -28.19921875 102.01953125 C-29.18668091 101.40235229 -29.18668091 101.40235229 -30.1940918 100.77270508 C-32.17397466 99.68914455 -32.17397466 99.68914455 -35 101 C-36.78642736 103.36307779 -38.43741445 105.71731309 -40.0625 108.1875 C-41.04585311 109.64912553 -42.03024957 111.11004958 -43.015625 112.5703125 C-43.51255859 113.31055664 -44.00949219 114.05080078 -44.52148438 114.81347656 C-46.74055734 118.09518354 -49.01636451 121.33440625 -51.3125 124.5625 C-52.07175781 125.63628906 -52.83101562 126.71007812 -53.61328125 127.81640625 C-54.40089844 128.86699219 -55.18851563 129.91757812 -56 131 C-56.3179805 131.59997803 -56.635961 132.19995605 -56.96357727 132.81811523 C-58.43729916 135.17178744 -59.66325298 136.46441711 -62 138 C-67.51662155 139.00667216 -72.96629641 138.81513748 -78.5546875 138.68359375 C-80.18276843 138.67052736 -81.810877 138.6605681 -83.43899536 138.65357971 C-87.7107835 138.62693497 -91.98088823 138.55824696 -96.25201416 138.48065186 C-100.61569446 138.4088631 -104.97964857 138.37703507 -109.34375 138.34179688 C-117.8966033 138.26686943 -126.44809187 138.14750271 -135 138 C-133.58342633 135.10829457 -132.05145568 132.5044244 -130.19921875 129.8671875 C-129.36173096 128.67186401 -129.36173096 128.67186401 -128.50732422 127.45239258 C-127.90678223 126.60185303 -127.30624023 125.75131348 -126.6875 124.875 C-126.06375488 123.98772217 -125.44000977 123.10044434 -124.79736328 122.1862793 C-120.17190496 115.62177185 -115.48535534 109.10285764 -110.77197266 102.60131836 C-96.51044431 86.2321842 -96.51044431 86.2321842 -88 68 C-93.94 64.7 -99.88 61.4 -106 58 C-106 57.01 -106 56.02 -106 55 C-87.58451401 45.10372417 -69.12928608 35.28473004 -50.64630127 25.51516724 C-45.28278253 22.67971508 -39.92217407 19.83880544 -34.5625 16.99609375 C-32.2470405 15.76846527 -29.93154063 14.54091297 -27.61602783 13.31338501 C-26.14023799 12.53079476 -24.66460722 11.74790448 -23.18914795 10.96469116 C-2.53175642 0 -2.53175642 0 0 0 Z " fill="#018EF6" transform="translate(1157,362)"/>
<path d="M0 0 C1.03820389 -0.01913956 2.07640778 -0.03827911 3.14607239 -0.05799866 C4.26277817 -0.06133713 5.37948395 -0.0646756 6.5300293 -0.06811523 C7.68415817 -0.07810043 8.83828705 -0.08808563 10.02738953 -0.09837341 C12.46923233 -0.11355986 14.91113736 -0.12059904 17.35302734 -0.12011719 C21.08039632 -0.12666707 24.80508613 -0.18111724 28.53198242 -0.23803711 C30.90632229 -0.24684161 33.28067478 -0.25279419 35.6550293 -0.25561523 C37.32097893 -0.28795006 37.32097893 -0.28795006 39.02058411 -0.32093811 C43.90085935 -0.27794288 47.89877735 -0.1044474 51.99658203 2.73095703 C55.53509118 6.37834339 55.63943002 10.1298005 55.71307373 15.0423584 C55.69263 16.15187866 55.67218628 17.26139893 55.65112305 18.40454102 C55.65307678 19.55821167 55.65503052 20.71188232 55.65704346 21.9005127 C55.65305079 24.33472147 55.63181356 26.76895508 55.59448242 29.20288086 C55.54191814 32.92375098 55.55331742 36.64045807 55.57299805 40.36157227 C55.56118312 42.73008392 55.54568172 45.09858065 55.52612305 47.46704102 C55.52997009 48.57656128 55.53381714 49.68608154 55.53778076 50.82922363 C55.35437695 59.42542497 55.35437695 59.42542497 52.43334961 63.05883789 C48.76301849 66.36145747 46.75851509 67.68220828 41.88061523 67.75805664 C40.88237732 67.77727173 39.8841394 67.79648682 38.85565186 67.81628418 C37.2384726 67.82903381 37.2384726 67.82903381 35.58862305 67.84204102 C33.92189545 67.85914124 33.92189545 67.85914124 32.22149658 67.87658691 C29.86783661 67.89549049 27.51412367 67.90855632 25.16040039 67.91625977 C21.56912079 67.93564327 17.98014491 67.99766579 14.3894043 68.06079102 C12.10165746 68.07385447 9.81389426 68.08435408 7.52612305 68.09204102 C6.45610046 68.11673462 5.38607788 68.14142822 4.28363037 68.16687012 C-1.96763478 68.1297514 -5.48912612 67.38562772 -9.99188232 62.92053223 C-12.28616747 60.12005149 -12.34209623 58.14934659 -12.36938477 54.60644531 C-12.37899231 53.60167648 -12.38859985 52.59690765 -12.39849854 51.56169128 C-12.40274841 50.47213638 -12.40699829 49.38258148 -12.41137695 48.26000977 C-12.41707703 47.14269974 -12.4227771 46.02538971 -12.4286499 44.8742218 C-12.43810937 42.50616404 -12.44463763 40.13809306 -12.44848633 37.77001953 C-12.45818415 34.14861016 -12.48919614 30.52777003 -12.52075195 26.90649414 C-12.52728262 24.60766939 -12.53253284 22.30884058 -12.53637695 20.01000977 C-12.54872375 18.92652756 -12.56107056 17.84304535 -12.5737915 16.72673035 C-12.54567869 7.22596578 -12.54567869 7.22596578 -9.20825195 3.43579102 C-6.11299923 0.66534337 -4.13050293 0.05181753 0 0 Z " fill="#0393F7" transform="translate(238.208251953125,606.564208984375)"/>
<path d="M0 0 C0.8660788 0.00137466 1.73215759 0.00274933 2.6244812 0.00416565 C4.44493026 0.01318367 6.26535957 0.03669489 8.08544922 0.07397461 C10.86639609 0.12889062 13.64434749 0.1355021 16.42578125 0.13476562 C18.20054664 0.14950946 19.97529183 0.16699372 21.75 0.1875 C22.57718536 0.19083847 23.40437073 0.19417694 24.25662231 0.19761658 C29.96806607 0.33814919 33.2368212 1.39168392 37.52978516 5.33227539 C39.37195794 8.91683351 39.16990753 12.49914577 39.140625 16.4375 C39.14349518 17.28562759 39.14636536 18.13375519 39.14932251 19.00758362 C39.15136114 20.79876372 39.14584534 22.58996618 39.13330078 24.38110352 C39.11726373 27.11590665 39.13314556 29.84922752 39.15234375 32.58398438 C39.15036089 34.32682617 39.14651634 36.06966704 39.140625 37.8125 C39.14973404 39.03458412 39.14973404 39.03458412 39.1590271 40.28135681 C39.10236498 44.88025112 38.81443557 48.02627556 35.7421875 51.69140625 C31.36747189 55.39308869 26.92453433 55.15886967 21.4609375 55.16015625 C20.56983276 55.16776978 19.67872803 55.1753833 18.76062012 55.18322754 C16.88129471 55.19400698 15.00190951 55.19689042 13.12255859 55.19238281 C10.2512626 55.19140933 7.38262999 55.23307752 4.51171875 55.27734375 C2.68229722 55.2825503 0.85286643 55.28523895 -0.9765625 55.28515625 C-2.25956238 55.30974915 -2.25956238 55.30974915 -3.56848145 55.33483887 C-7.9847096 55.28374713 -9.71074825 55.12870357 -13.27539062 52.27929688 C-17.9935485 46.12012527 -16.63908909 37.84200046 -16.71777344 30.35302734 C-16.74437113 28.41885605 -16.7852865 26.48482636 -16.84082031 24.55126953 C-16.9200715 21.75885873 -16.95309881 18.9691527 -16.9765625 16.17578125 C-17.00955444 15.31619812 -17.04254639 14.45661499 -17.07653809 13.57098389 C-17.06515692 10.13871276 -16.92702504 7.68211138 -14.97610474 4.79396057 C-10.42536554 0.33097816 -6.15892233 -0.16129165 0 0 Z " fill="#0371F4" transform="translate(172.2578125,672.30859375)"/>
<path d="M0 0 C0.86653702 -0.00478363 1.73307404 -0.00956726 2.62586975 -0.01449585 C4.45396749 -0.01789007 6.28212632 -0.00872098 8.11010742 0.01220703 C10.89836021 0.03894936 13.68257609 0.01246244 16.47070312 -0.01953125 C18.25131092 -0.01622643 20.03191621 -0.00981869 21.8125 0 C22.64079819 -0.01012115 23.46909637 -0.02024231 24.32249451 -0.03067017 C30.2259354 0.08797101 32.86126933 1.3982819 36.97265625 5.6640625 C39.48706689 10.69288379 38.28582741 18.55208741 38.32275391 24.14794922 C38.33929216 25.98499234 38.3665542 27.82197168 38.40478516 29.65869141 C38.45971128 32.31186186 38.48145255 34.96352413 38.49609375 37.6171875 C38.51876312 38.43302307 38.5414325 39.24885864 38.56478882 40.0894165 C38.54944165 44.25679682 38.23395526 46.86800725 35.56494141 50.16699219 C31.36166486 54.21588204 28.01171471 53.85241836 22.421875 53.90234375 C21.57091751 53.9104155 20.71996002 53.91848724 19.84321594 53.92680359 C18.04011066 53.94064544 16.23697916 53.95136715 14.43383789 53.95922852 C11.68129558 53.97643039 8.92995787 54.02031299 6.17773438 54.06445312 C4.42579008 54.07458113 2.67383558 54.0830969 0.921875 54.08984375 C0.10087814 54.10735184 -0.72011871 54.12485992 -1.56599426 54.14289856 C-5.54330251 54.12786466 -7.55679051 53.9528346 -11.02416992 51.82495117 C-13.74894653 48.88564614 -14.14994321 46.50024819 -14.22021484 42.63916016 C-14.23627777 41.83467438 -14.2523407 41.0301886 -14.26889038 40.20132446 C-14.31349117 36.53266413 -14.35438636 32.86418055 -14.37744141 29.1953125 C-14.39401334 27.26127093 -14.42131968 25.32729091 -14.45947266 23.39355469 C-14.51426471 20.60058939 -14.53611617 17.80905547 -14.55078125 15.015625 C-14.57345062 14.15401764 -14.59612 13.29241028 -14.61947632 12.4046936 C-14.60490384 8.25905619 -14.35691191 6.17351774 -12.05883789 2.62109375 C-7.94102438 -0.03722896 -4.80929784 -0.05862259 0 0 Z " fill="#035EF0" transform="translate(170.02734375,551.3359375)"/>
<path d="M0 0 C2.19118832 0.04734275 4.37751897 0.041089 6.5690918 0.02783203 C18.45370863 0.12203962 18.45370863 0.12203962 24.12963867 4.67236328 C26.51746059 9.44800711 25.48394157 16.6226423 25.53466797 21.92944336 C25.55624948 23.62789236 25.59035493 25.32623009 25.63720703 27.02416992 C25.70424477 29.476415 25.73166875 31.92636221 25.75073242 34.37939453 C25.77856308 35.13477005 25.80639374 35.89014557 25.83506775 36.66841125 C25.81906501 40.78611173 25.28349548 42.492505 22.58129883 45.65136719 C18.66117278 47.94665672 15.70312287 48.38536098 11.28198242 48.30126953 C10.18050621 48.30488747 10.18050621 48.30488747 9.05677795 48.30857849 C7.51289438 48.30760388 5.96897418 48.29430233 4.42529297 48.26928711 C2.06967007 48.23490023 -0.28221137 48.24866254 -2.63793945 48.26806641 C-4.1438147 48.26116887 -5.64968033 48.2514973 -7.15551758 48.23876953 C-8.20413719 48.24620934 -8.20413719 48.24620934 -9.27394104 48.25379944 C-14.05667538 48.13920736 -16.50626379 47.05146325 -19.87036133 43.67236328 C-22.2112632 38.99055953 -21.26610918 32.0956134 -21.33032227 26.89746094 C-21.35690393 25.25426038 -21.39780279 23.61122589 -21.45336914 21.96875 C-21.96761627 6.58160854 -21.96761627 6.58160854 -18.34301758 2.60205078 C-12.96690372 -0.67237985 -6.09505303 -0.14106066 0 0 Z " fill="#0498F8" transform="translate(118.870361328125,612.32763671875)"/>
<path d="M0 0 C1.44905704 -0.01652178 2.89803384 -0.04376266 4.34667969 -0.08203125 C6.44394873 -0.13710911 8.53930991 -0.15871937 10.63720703 -0.17333984 C11.89178711 -0.19315918 13.14636719 -0.21297852 14.43896484 -0.23339844 C18.98550142 0.525628 20.8828622 1.9202803 23.93408203 5.35009766 C24.67871094 8.68408203 24.67871094 8.68408203 24.66064453 12.44384766 C24.66164154 13.11299194 24.66263855 13.78213623 24.66366577 14.47155762 C24.65900409 15.88024837 24.63966162 17.28895882 24.60644531 18.69726562 C24.55919885 20.84478761 24.56533332 22.98734319 24.57861328 25.13525391 C24.48336025 36.86591245 24.48336025 36.86591245 19.93408203 41.35009766 C14.85845039 43.04197487 9.47736373 42.65417424 4.16503906 42.70019531 C2.76447942 42.71675653 1.36400437 42.7440499 -0.03613281 42.78222656 C-2.06473192 42.83718272 -4.09136094 42.8588907 -6.12060547 42.87353516 C-7.93794189 42.90326416 -7.93794189 42.90326416 -9.79199219 42.93359375 C-13.95847442 42.1910216 -15.38709818 40.53407685 -18.06591797 37.35009766 C-18.39591797 37.02009766 -18.72591797 36.69009766 -19.06591797 36.35009766 C-19.33265569 32.14851863 -19.33722437 27.94096353 -19.36108398 23.73193359 C-19.37823814 21.62221407 -19.42209725 19.51408613 -19.46630859 17.40478516 C-19.47644074 16.05844251 -19.48495521 14.71208653 -19.49169922 13.36572266 C-19.50628174 12.14143555 -19.52086426 10.91714844 -19.53588867 9.65576172 C-18.98017462 5.74699899 -17.81159271 4.12931467 -15.06591797 1.35009766 C-10.69056036 -0.83758115 -4.85885439 0.0405727 0 0 Z " fill="#042B92" transform="translate(120.06591796875,499.64990234375)"/>
<path d="M0 0 C0.66 0 1.32 0 2 0 C1.33638444 7.03432494 1.33638444 7.03432494 -2 10 C-2.96605975 11.67339076 -3.9294024 13.34845719 -4.8737793 15.03417969 C-6.70557002 18.23157376 -8.71433361 21.30457304 -10.75 24.375 C-11.39763306 25.35400269 -11.39763306 25.35400269 -12.05834961 26.3527832 C-15.18456925 30.99241261 -18.58035909 35.16547698 -22.50390625 39.16796875 C-24.14622611 40.87181031 -24.14622611 40.87181031 -24.33984375 42.98828125 C-25.23180761 45.70639598 -26.92188043 46.36319942 -29.27978516 47.80371094 C-32.55057872 50.07831901 -35.05222354 53.1629859 -37.6875 56.125 C-38.81356458 57.38015938 -39.94236861 58.63286779 -41.07421875 59.8828125 C-41.56494873 60.43340332 -42.05567871 60.98399414 -42.5612793 61.55126953 C-44 63 -44 63 -47 65 C-13.01 65.33 20.98 65.66 56 66 C56 66.66 56 67.32 56 68 C19.7 68 -16.6 68 -54 68 C-50.92914835 64.92914835 -47.85433305 61.87488602 -44.7421875 58.84765625 C-35.40826598 49.70047061 -26.70392408 40.55820812 -19 30 C-18.30003906 29.08347656 -17.60007812 28.16695312 -16.87890625 27.22265625 C-10.51194633 18.77061004 -4.5575532 9.57086172 0 0 Z " fill="#2155D6" transform="translate(587,757)"/>
<path d="M0 0 C0.765625 1.6640625 0.765625 1.6640625 1 4 C-0.765625 6.5859375 -0.765625 6.5859375 -3.25 9.375 C-6.55436503 13.11082671 -8.80720685 16.53631422 -11 21 C-12.75390625 23.16015625 -12.75390625 23.16015625 -14.5625 25.0625 C-17.22112116 27.98698328 -18.58086741 30.31025527 -20 34 C-21.34229525 35.57719692 -22.6911394 37.14945657 -24.078125 38.6875 C-27.16202245 42.39820588 -29.85532973 46.39210378 -32.57226562 50.37670898 C-33.66717775 51.9520287 -34.82846604 53.48079859 -36 55 C-36.66 55 -37.32 55 -38 55 C-38 55.66 -38 56.32 -38 57 C-37.17980881 56.99777939 -36.35961761 56.99555878 -35.51457214 56.99327087 C-27.78953105 56.9732437 -20.06450252 56.95801345 -12.33944225 56.94818783 C-8.36780376 56.9429666 -4.3961867 56.9358827 -0.42456055 56.92456055 C3.40741372 56.91370473 7.23936736 56.90771743 11.07135582 56.90512276 C12.53420016 56.90327338 13.99704335 56.89966208 15.45987892 56.89426994 C17.50688757 56.88702378 19.55381069 56.88601057 21.60083008 56.88647461 C22.76665115 56.884254 23.93247223 56.88203339 25.13362122 56.87974548 C28 57 28 57 31 58 C31 58.66 31 59.32 31 60 C6.91 60 -17.18 60 -42 60 C-40.50764559 57.01529118 -39.09313085 54.56376201 -37.19921875 51.8671875 C-36.64089355 51.07030518 -36.08256836 50.27342285 -35.50732422 49.45239258 C-34.90678223 48.60185303 -34.30624023 47.75131348 -33.6875 46.875 C-33.06375488 45.98772217 -32.44000977 45.10044434 -31.79736328 44.1862793 C-27.1758948 37.62743429 -22.49569692 31.11237146 -17.78295898 24.61889648 C-13.36296745 18.52416112 -9.01425608 12.38105065 -4.69287109 6.21606445 C-1.10086287 1.10086287 -1.10086287 1.10086287 0 0 Z " fill="#125AED" transform="translate(1064,440)"/>
<path d="M0 0 C0.33 0 0.66 0 1 0 C1.11592622 9.04040468 1.20473108 18.08055294 1.25906086 27.12153912 C1.28513862 31.31981881 1.32050223 35.51758945 1.37719727 39.71557617 C1.43158381 43.76805932 1.46143425 47.82005333 1.47438622 51.87287331 C1.48361434 53.41787223 1.50163536 54.96284483 1.52865028 56.50763512 C1.56503239 58.67453914 1.56994204 60.83943076 1.56762695 63.0065918 C1.57873001 64.23903122 1.58983307 65.47147064 1.60127258 66.74125671 C0.81864266 70.9829103 -0.57579932 72.43865811 -4 75 C-6.65563965 75.62818909 -6.65563965 75.62818909 -9.53710938 75.63110352 C-10.62173462 75.64363663 -11.70635986 75.65616974 -12.82385254 75.66908264 C-13.9854187 75.65582443 -15.14698486 75.64256622 -16.34375 75.62890625 C-18.14652405 75.63252419 -18.14652405 75.63252419 -19.98571777 75.63621521 C-22.52420352 75.63523665 -25.06271058 75.62184127 -27.60107422 75.59692383 C-31.48608922 75.56262282 -35.36882911 75.57626544 -39.25390625 75.59570312 C-41.72136385 75.58880458 -44.18881558 75.57913212 -46.65625 75.56640625 C-48.39859924 75.57384605 -48.39859924 75.57384605 -50.17614746 75.58143616 C-58.22063098 75.46398072 -58.22063098 75.46398072 -62.20898438 73.08959961 C-64.99723986 69.83650819 -65.14209405 67.90922616 -65.24609375 63.6953125 C-65.27896484 62.63699219 -65.31183594 61.57867188 -65.34570312 60.48828125 C-65.40668514 58.25400392 -65.46400318 56.01962346 -65.51757812 53.78515625 C-65.55173828 52.72425781 -65.58589844 51.66335938 -65.62109375 50.5703125 C-65.6461499 49.59852051 -65.67120605 48.62672852 -65.69702148 47.62548828 C-66.13183674 43.85755657 -67.10417734 41.75585037 -70 39.3125 C-74.23961852 37.4576669 -78.41495096 37.25818723 -83 37 C-83 36.67 -83 36.34 -83 36 C-74.21621622 34.4029484 -74.21621622 34.4029484 -69.5625 36.6875 C-65.15028279 40.669257 -63.21302015 43.57782798 -62.84228516 49.53369141 C-62.82472168 50.46358887 -62.8071582 51.39348633 -62.7890625 52.3515625 C-62.76070312 53.36734375 -62.73234375 54.383125 -62.703125 55.4296875 C-62.65085507 57.56752773 -62.60664064 59.70557946 -62.5703125 61.84375 C-62.539375 62.85695313 -62.5084375 63.87015625 -62.4765625 64.9140625 C-62.45674316 65.8417041 -62.43692383 66.7693457 -62.41650391 67.72509766 C-62.27905762 68.47581543 -62.14161133 69.2265332 -62 70 C-58.63352075 72.2443195 -57.54377354 72.2450516 -53.6105957 72.22705078 C-52.50968094 72.22689972 -51.40876617 72.22674866 -50.27449036 72.22659302 C-49.08691635 72.21627045 -47.89934235 72.20594788 -46.67578125 72.1953125 C-45.45924362 72.1924826 -44.24270599 72.18965271 -42.98930359 72.18673706 C-39.09693642 72.17552603 -35.20479784 72.15041948 -31.3125 72.125 C-28.67643561 72.11497141 -26.04036762 72.10584535 -23.40429688 72.09765625 C-16.93611968 72.07558366 -10.46807617 72.04209688 -4 72 C-3.505 70.515 -3.505 70.515 -3 69 C-2.01 69 -1.02 69 0 69 C0 46.23 0 23.46 0 0 Z " fill="#0B1762" transform="translate(302,505)"/>
<path d="M0 0 C1.03769028 -0.00137466 2.07538055 -0.00274933 3.14451599 -0.00416565 C4.85894142 0.00122726 4.85894142 0.00122726 6.60800171 0.00672913 C8.40797356 0.00651009 8.40797356 0.00651009 10.24430847 0.00628662 C13.53956391 0.00686495 16.83475712 0.01188887 20.13000154 0.01886058 C23.57199706 0.02510124 27.01399335 0.02569848 30.45599365 0.02688599 C36.97601466 0.02999719 43.49601894 0.03820776 50.01603258 0.04823548 C57.43794268 0.05940313 64.85985358 0.06490871 72.28176999 0.06993091 C87.55116812 0.08039053 102.82054956 0.09798592 118.0899353 0.12025452 C118.0899353 0.45025452 118.0899353 0.78025452 118.0899353 1.12025452 C106.75788275 2.21268603 95.49211005 2.24026576 84.11888313 2.19541931 C80.80994653 2.18250017 77.50105063 2.17610174 74.1920929 2.17127991 C67.1788552 2.15993719 60.16565168 2.1406697 53.1524353 2.12025452 C44.99473244 2.09659851 36.83704852 2.07625026 28.67931938 2.0643158 C25.42717272 2.05785794 22.17508556 2.04535694 18.92295837 2.03260803 C16.92661591 2.02897512 14.93027292 2.02562344 12.93392944 2.02259827 C12.03666641 2.01743195 11.13940338 2.01226563 10.21495056 2.00694275 C1.51415389 1.63194917 1.51415389 1.63194917 -6.0194397 4.97572327 C-6.56084595 5.74529358 -7.1022522 6.51486389 -7.6600647 7.30775452 C-8.53211548 8.53171936 -8.53211548 8.53171936 -9.42178345 9.78041077 C-11.01589464 12.19821099 -11.01589464 12.19821099 -12.4725647 15.24525452 C-14.04395177 18.38802867 -15.91839769 20.60340274 -18.2460022 23.20619202 C-20.02829408 25.25624606 -21.65177707 27.38749561 -23.2850647 29.55775452 C-26.79871218 34.1325707 -30.73978873 38.14495249 -34.9100647 42.12025452 C-35.5700647 41.79025452 -36.2300647 41.46025452 -36.9100647 41.12025452 C-36.26682251 40.46283264 -35.62358032 39.80541077 -34.96084595 39.12806702 C-24.56009006 28.17834114 -15.27298457 16.01594531 -7.96084595 2.77259827 C-5.93900953 -0.40672072 -3.48002753 -0.00354382 0 0 Z " fill="#047AF5" transform="translate(834.9100646972656,744.8797454833984)"/>
<path d="M0 0 C0.66 0.66 1.32 1.32 2 2 C-1 5 -4 8 -7 11 C-7.55171875 11.56976562 -8.1034375 12.13953125 -8.671875 12.7265625 C-10.30351116 14.29101364 -11.9471893 15.06690423 -14 16 C-14.7425 16.37125 -15.485 16.7425 -16.25 17.125 C-16.8275 17.41375 -17.405 17.7025 -18 18 C-18 18.66 -18 19.32 -18 20 C-23.11035514 24.62365465 -28.44118064 28.68512258 -35 31 C-35 31.66 -35 32.32 -35 33 C-36.485 33.495 -36.485 33.495 -38 34 C-38.33 34.66 -38.66 35.32 -39 36 C-0.72 36 37.56 36 77 36 C77 36.33 77 36.66 77 37 C36.41 37 -4.18 37 -46 37 C-42.49027305 33.49027305 -39.06486593 30.95149542 -34.9375 28.3125 C-25.30964921 22.01866704 -16.73651975 14.75875643 -8.23828125 7.01953125 C-5.55387852 4.59747853 -2.80118216 2.28517492 0 0 Z " fill="#095BED" transform="translate(797,787)"/>
<path d="M0 0 C0.66 0 1.32 0 2 0 C2.01030746 0.80766312 2.02061493 1.61532623 2.03123474 2.44746399 C2.12916784 10.05484942 2.23167633 17.66215286 2.33933926 25.26940632 C2.39452943 29.18047084 2.44794319 33.0915429 2.49731445 37.00268555 C2.54501562 40.77636918 2.59736051 44.54996231 2.65294075 48.32353783 C2.67333824 49.76402727 2.69205562 51.20454151 2.70907402 52.64507484 C2.73317543 54.66098342 2.7637768 56.67681114 2.79467773 58.69262695 C2.81022202 59.84068314 2.8257663 60.98873932 2.84178162 62.17158508 C2.88013276 65.07831278 2.88013276 65.07831278 4 68 C4.66 68.33 5.32 68.66 6 69 C6 69.66 6 70.32 6 71 C40.32 71 74.64 71 110 71 C110 71.33 110 71.66 110 72 C96.39614538 72.11580095 82.79240783 72.2046687 69.1881609 72.25906086 C62.871276 72.28516517 56.55472806 72.32057964 50.23803711 72.37719727 C44.14315665 72.43148549 38.0486005 72.46141425 31.95349693 72.47438622 C29.62702007 72.48363169 27.30056115 72.50168583 24.97422218 72.52865028 C21.7178562 72.5648968 18.46283377 72.56994699 15.20629883 72.56762695 C14.24244766 72.58560333 13.2785965 72.60357971 12.28553772 72.62210083 C7.85410997 72.58789147 5.63481601 72.43289381 1.89758301 69.88439941 C-0.40654775 66.38203173 -0.60691479 64.45435036 -0.56762695 60.28198242 C-0.56835709 59.62776306 -0.56908722 58.9735437 -0.56983948 58.29949951 C-0.56637338 56.150627 -0.52756664 54.00395944 -0.48828125 51.85546875 C-0.47894945 50.36047042 -0.47183507 48.86545674 -0.46684265 47.37043762 C-0.44780118 43.44586571 -0.39872681 39.52222702 -0.34332275 35.59802246 C-0.2920676 31.58956526 -0.26931536 27.58095645 -0.24414062 23.57226562 C-0.19060369 15.71441668 -0.10532735 7.85732461 0 0 Z " fill="#021770" transform="translate(334,588)"/>
<path d="M0 0 C0.66 0 1.32 0 2 0 C1.99777939 1.25787827 1.99555878 2.51575653 1.99327087 3.81175232 C1.97297058 15.68487696 1.95799469 27.55799806 1.94818783 39.43113613 C1.9429765 45.53474592 1.93591066 51.63834166 1.92456055 57.74194336 C1.91366944 63.63581034 1.90770998 69.52966384 1.90512276 75.42354012 C1.90327972 77.66851069 1.89968075 79.91348055 1.89426994 82.15844536 C1.8869769 85.31064302 1.88601254 88.46278545 1.88647461 91.61499023 C1.88287933 92.53640808 1.87928406 93.45782593 1.87557983 94.40716553 C1.88443474 100.01524205 2.2878406 105.43608245 3 111 C1.03846108 109.37867939 0.08808442 108.49055632 -0.36914349 105.94418049 C-0.36637811 105.15051673 -0.36361273 104.35685297 -0.36076355 103.53913879 C-0.36488754 102.62628616 -0.36901154 101.71343353 -0.3732605 100.7729187 C-0.36247467 99.77382477 -0.35168884 98.77473083 -0.34057617 97.74536133 C-0.34101425 96.69153763 -0.34145233 95.63771393 -0.34190369 94.55195618 C-0.33981035 91.06179403 -0.31645309 87.57210969 -0.29296875 84.08203125 C-0.28737475 81.66493492 -0.28310373 79.2478352 -0.28010559 76.83073425 C-0.26864147 70.46349729 -0.23916059 64.09646506 -0.20599365 57.72930908 C-0.17532665 51.2342811 -0.16160745 44.73922011 -0.14648438 38.24414062 C-0.11429258 25.49600632 -0.06365238 12.74801404 0 0 Z " fill="#041864" transform="translate(214,429)"/>
<path d="M0 0 C36.96 0 73.92 0 112 0 C112 0.33 112 0.66 112 1 C101.83342698 1.17257815 91.66676189 1.33897183 81.5 1.5 C80.37551327 1.51781588 80.37551327 1.51781588 79.22830963 1.53599167 C54.81739438 1.92078242 30.41437131 2.14762178 6 2 C8.77260299 3.93798263 8.77260299 3.93798263 11 5 C12 6 13 7 14 8 C16.61951666 10.19701398 18.62079221 11.39657004 22 12 C22 13.32 22 14.64 22 16 C23.32 16.66 24.64 17.32 26 18 C26 18.99 26 19.98 26 21 C25.113125 20.21625 24.22625 19.4325 23.3125 18.625 C19.77449824 15.59242707 16.12621494 12.72023475 12.4375 9.875 C11.89585205 9.45557129 11.3542041 9.03614258 10.79614258 8.60400391 C8.12250045 6.55333457 5.42067306 4.59455386 2.59765625 2.7578125 C1.74042969 2.17773438 0.88320313 1.59765625 0 1 C0 0.67 0 0.34 0 0 Z " fill="#0342E3" transform="translate(534,419)"/>
<path d="M0 0 C0.33 0 0.66 0 1 0 C1 17.49 1 34.98 1 53 C0.01 53 -0.98 53 -2 53 C-2 36.17 -2 19.34 -2 2 C-1.34 2 -0.68 2 0 2 C0 1.34 0 0.68 0 0 Z " fill="#29B6F8" transform="translate(292,613)"/>
<path d="M0 0 C0 0.66 0 1.32 0 2 C0.99 2 1.98 2 3 2 C3 2.66 3 3.32 3 4 C2.12588911 3.83826325 1.25177822 3.67652651 0.35117912 3.50988865 C-2.70134116 3.04544154 -5.53672332 2.86280988 -8.61886597 2.84178162 C-9.71253983 2.8319928 -10.80621368 2.82220398 -11.93302917 2.81211853 C-13.11770279 2.80636307 -14.3023764 2.8006076 -15.52294922 2.79467773 C-16.78203598 2.78477814 -18.04112274 2.77487854 -19.33836365 2.76467896 C-22.77796129 2.73774263 -26.21757249 2.71667237 -29.65721655 2.69667697 C-33.25670155 2.67474752 -36.85614528 2.64739301 -40.45559692 2.62062073 C-47.26586499 2.57078765 -54.07615608 2.52581417 -60.88646901 2.48259836 C-68.64223146 2.43314558 -76.3979525 2.37825737 -84.15367484 2.32291877 C-100.10241158 2.20924287 -116.05118646 2.10237273 -132 2 C-132 1.67 -132 1.34 -132 1 C-115.67526667 0.86932566 -99.35053118 0.73892483 -83.02579308 0.60884857 C-75.44574252 0.54844402 -67.86569269 0.48795037 -60.28564453 0.42724609 C-53.67799221 0.37432941 -47.07033858 0.32158078 -40.46268332 0.26903296 C-36.96481009 0.24121004 -33.46693757 0.21330364 -29.96906662 0.18519592 C-26.06189934 0.15380239 -22.15472912 0.12278407 -18.24755859 0.09179688 C-17.09093719 0.08244614 -15.9343158 0.0730954 -14.74264526 0.0634613 C-13.67421387 0.05504715 -12.60578247 0.046633 -11.50497437 0.03796387 C-10.11951951 0.02690235 -10.11951951 0.02690235 -8.70607567 0.01561737 C-5.80399476 -0.00113119 -2.9021228 -0.00259268 0 0 Z " fill="#2E469E" transform="translate(441,498)"/>
<path d="M0 0 C6.69376926 6.87468194 5.76254064 15.38150883 5.83984375 24.36523438 C5.86175781 25.36490234 5.88367188 26.36457031 5.90625 27.39453125 C5.91333984 28.30307861 5.92042969 29.21162598 5.92773438 30.14770508 C6.05470703 30.8827124 6.18167969 31.61771973 6.3125 32.375 C9.54753254 34.53168836 10.50071736 34.63729044 14.24291992 34.69384766 C15.74413643 34.72365219 15.74413643 34.72365219 17.27568054 34.75405884 C18.35388565 34.76561005 19.43209076 34.77716125 20.54296875 34.7890625 C21.64852615 34.80842865 22.75408356 34.8277948 23.8931427 34.8477478 C27.42868301 34.90758836 30.96425579 34.9539473 34.5 35 C36.89519659 35.03817562 39.2903794 35.0772271 41.68554688 35.1171875 C47.56107564 35.21329358 53.43668725 35.29832804 59.3125 35.375 C59.3125 35.705 59.3125 36.035 59.3125 36.375 C51.98033072 36.50169211 44.64844323 36.58930617 37.31542969 36.6496582 C34.82053072 36.67481494 32.32570554 36.70894403 29.83105469 36.75219727 C26.24655972 36.81279434 22.66303837 36.84119892 19.078125 36.86328125 C17.40293793 36.90199089 17.40293793 36.90199089 15.69390869 36.94148254 C8.01777525 36.9442679 8.01777525 36.9442679 4.61083984 34.19433594 C3.20742981 31.14684081 2.80224449 29.12093131 2.7734375 25.77734375 C2.75023437 24.72869141 2.72703125 23.68003906 2.703125 22.59960938 C2.69796875 21.51486328 2.6928125 20.43011719 2.6875 19.3125 C2.66195037 17.1548336 2.62842167 14.99724315 2.5859375 12.83984375 C2.57997559 11.887146 2.57401367 10.93444824 2.56787109 9.95288086 C2.19543077 6.19322754 1.19276333 4.11772218 -1.6875 1.6875 C-5.92711852 -0.1673331 -10.10245096 -0.36681277 -14.6875 -0.625 C-14.6875 -0.955 -14.6875 -1.285 -14.6875 -1.625 C-9.1175298 -2.81856504 -4.97707573 -3.00939462 0 0 Z " fill="#0D266D" transform="translate(233.6875,542.625)"/>
<path d="M0 0 C1.05833542 0.00707474 2.11667084 0.01414948 3.20707703 0.0214386 C6.58018312 0.04937906 9.95161621 0.11212004 13.32421875 0.17578125 C15.61390828 0.20086443 17.90362389 0.22367756 20.19335938 0.24414062 C25.8000479 0.29920444 31.40576379 0.38282795 37.01171875 0.48828125 C36.68171875 1.14828125 36.35171875 1.80828125 36.01171875 2.48828125 C34.74054199 2.46733398 33.46936523 2.44638672 32.15966797 2.42480469 C27.42980272 2.35223869 22.6999864 2.306421 17.96972656 2.26855469 C15.92504595 2.24847705 13.88042248 2.221209 11.8359375 2.18652344 C8.89178338 2.13783606 5.94839041 2.11527381 3.00390625 2.09765625 C2.09430145 2.07701111 1.18469666 2.05636597 0.24752808 2.03509521 C-5.24246059 2.03316753 -8.84548737 2.48917774 -12.98828125 6.48828125 C-13.86526606 9.2300586 -13.86526606 9.2300586 -13.72265625 12.27734375 C-13.73941406 13.38335938 -13.75617188 14.489375 -13.7734375 15.62890625 C-13.76183594 16.77875 -13.75023437 17.92859375 -13.73828125 19.11328125 C-13.74591119 21.39717612 -13.76114453 23.68106236 -13.78515625 25.96484375 C-13.77838867 26.97627441 -13.77162109 27.98770508 -13.76464844 29.02978516 C-13.98828125 31.48828125 -13.98828125 31.48828125 -15.98828125 33.48828125 C-16.1336016 28.9261166 -16.22236602 24.36454763 -16.30078125 19.80078125 C-16.34267578 18.50720703 -16.38457031 17.21363281 -16.42773438 15.88085938 C-16.44384766 14.63369141 -16.45996094 13.38652344 -16.4765625 12.1015625 C-16.50274658 10.95469971 -16.52893066 9.80783691 -16.5559082 8.6262207 C-15.98828125 5.48828125 -15.98828125 5.48828125 -14.14453125 2.60546875 C-9.49464333 -0.51363923 -5.4768367 -0.1380068 0 0 Z " fill="#081E69" transform="translate(256.98828125,700.51171875)"/>
<path d="M0 0 C9.33481056 14.00221584 8.42414128 33.92975799 8 50 C7.67 50 7.34 50 7 50 C6.95101562 49.01257813 6.90203125 48.02515625 6.8515625 47.0078125 C6.73941406 45.08582031 6.73941406 45.08582031 6.625 43.125 C6.55539062 41.84882812 6.48578125 40.57265625 6.4140625 39.2578125 C6.32758894 35.91938301 6.32758894 35.91938301 4 34 C3.62109375 31.71484375 3.62109375 31.71484375 3.4375 28.9375 C3.36273437 27.94878906 3.28796875 26.96007812 3.2109375 25.94140625 C3.10652344 24.48541016 3.10652344 24.48541016 3 23 C2.21611961 13.86370557 2.21611961 13.86370557 0 5 C-0.66 4.67 -1.32 4.34 -2 4 C-1.34 2.68 -0.68 1.36 0 0 Z " fill="#1845C0" transform="translate(546,497)"/>
<path d="M0 0 C2.37695123 -0.13608499 4.74600482 -0.23453667 7.125 -0.3125 C8.12273437 -0.3753418 8.12273437 -0.3753418 9.140625 -0.43945312 C13.72817891 -0.55189317 16.3346289 0.41843803 19.76028442 3.45451355 C21.9664522 6.20482375 21.67032484 8.85184407 21.5859375 12.26953125 C21.57744781 12.95053391 21.56895813 13.63153656 21.56021118 14.33317566 C21.52679302 16.49460485 21.45155986 18.6522119 21.375 20.8125 C21.34488432 22.28314898 21.31751129 23.75385684 21.29296875 25.22460938 C21.22704737 28.81763468 21.12361723 32.40844394 21 36 C20.67 36 20.34 36 20 36 C19.505 31.05 19.505 31.05 19 26 C18.67 26 18.34 26 18 26 C18.01047363 25.40461426 18.02094727 24.80922852 18.03173828 24.19580078 C18.07323949 21.50557657 18.09930704 18.81541963 18.125 16.125 C18.14175781 15.18785156 18.15851563 14.25070312 18.17578125 13.28515625 C18.18222656 12.38925781 18.18867188 11.49335938 18.1953125 10.5703125 C18.20578613 9.74289551 18.21625977 8.91547852 18.22705078 8.06298828 C18.19302257 5.77601843 18.19302257 5.77601843 16 4 C12.49987866 3.32689974 9.31430671 2.98791128 5.75 3.125 C3 3 3 3 1.328125 1.4921875 C0.88984375 0.99976563 0.4515625 0.50734375 0 0 Z " fill="#1239BA" transform="translate(123,500)"/>
<path d="M0 0 C0.66 0 1.32 0 2 0 C0.44801417 11.76729556 -4.14556714 21.56566222 -9.5625 32 C-9.93834229 32.73041504 -10.31418457 33.46083008 -10.70141602 34.21337891 C-12.73734374 38.04629035 -14.67869236 41.10797702 -18 44 C-18 42.35 -18 40.7 -18 39 C-17.34 39 -16.68 39 -16 39 C-16 38.34 -16 37.68 -16 37 C-15.34 37 -14.68 37 -14 37 C-13.896875 36.484375 -13.79375 35.96875 -13.6875 35.4375 C-12.75736134 32.13973565 -11.38604488 29.13366668 -10 26 C-9.34 26 -8.68 26 -8 26 C-7.87753906 25.29101562 -7.75507812 24.58203125 -7.62890625 23.8515625 C-6.76050908 19.91410948 -5.28577219 16.27976406 -3.83984375 12.5234375 C-2.84210645 9.96883916 -2.84210645 9.96883916 -3 7 C-2.34 7 -1.68 7 -1 7 C-1.020625 6.030625 -1.04125 5.06125 -1.0625 4.0625 C-1 1 -1 1 0 0 Z " fill="#1B4BC3" transform="translate(548,567)"/>
<path d="M0 0 C6.58344877 -0.12701465 13.16658038 -0.21444094 19.75097656 -0.2746582 C21.98970345 -0.29976693 24.22834864 -0.33386086 26.46679688 -0.37719727 C29.68900734 -0.43800719 32.91013194 -0.46624677 36.1328125 -0.48828125 C37.62846237 -0.52699089 37.62846237 -0.52699089 39.15432739 -0.56648254 C43.51785328 -0.56823466 47.01340422 -0.5218922 50.65625 2.0625 C53.66514092 5.83364329 53.63351612 7.71338948 53.3671875 12.48828125 C53.32115891 13.5430793 53.32115891 13.5430793 53.27420044 14.6191864 C53.17008415 16.85287356 53.02324592 19.0813508 52.875 21.3125 C52.79664284 22.83123653 52.72109127 24.35012057 52.6484375 25.86914062 C52.46474863 29.58168872 52.24269719 33.29078846 52 37 C51.67 37 51.34 37 51 37 C49.97243534 29.29326506 49.929141 21.71752476 50.03710938 13.95800781 C50.04967773 12.69875488 50.04967773 12.69875488 50.0625 11.4140625 C50.07410156 10.6607666 50.08570313 9.9074707 50.09765625 9.13134766 C49.99826143 6.96205573 49.59911731 5.08216854 49 3 C48.01 3 47.02 3 46 3 C46 2.34 46 1.68 46 1 C30.82 1 15.64 1 0 1 C0 0.67 0 0.34 0 0 Z " fill="#445D95" transform="translate(248,700)"/>
<path d="M0 0 C0 0.99 0 1.98 0 3 C-1.40133824 3.94833766 -2.80947119 4.88808423 -4.24902344 5.77734375 C-7.49534341 8.04415502 -9.99586763 11.06372599 -12.625 14 C-14.26831994 15.8099238 -15.91322065 17.61827224 -17.56347656 19.421875 C-18.77134422 20.74880507 -19.96197114 22.09139998 -21.1484375 23.4375 C-23 25 -23 25 -27 25 C-25.91699761 21.75099283 -25.36840631 21.25293388 -22.8125 19.1875 C-17.85249428 15.0196549 -13.39235856 10.39532295 -8.92504883 5.71166992 C-8.34650146 5.11845947 -7.7679541 4.52524902 -7.171875 3.9140625 C-6.6572168 3.3773291 -6.14255859 2.8405957 -5.61230469 2.28759766 C-3.76838939 0.81503417 -2.30352384 0.40639404 0 0 Z " fill="#1348D3" transform="translate(562,799)"/>
<path d="M0 0 C0.67578125 1.71875 0.67578125 1.71875 1 4 C-0.14453125 6.21875 -0.14453125 6.21875 -1.8125 8.5 C-4.09930355 11.65683715 -4.09930355 11.65683715 -6 15.046875 C-7.14200233 17.27734831 -8.50944538 18.89146811 -10.1875 20.75 C-10.80753906 21.44222656 -11.42757812 22.13445313 -12.06640625 22.84765625 C-12.70449219 23.55792969 -13.34257813 24.26820313 -14 25 C-15.20971326 26.39463758 -16.41808681 27.79043856 -17.625 29.1875 C-20.30551962 32.25527302 -23.07584634 35.16445705 -26 38 C-26.66 37.67 -27.32 37.34 -28 37 C-27.35675781 36.34257813 -26.71351563 35.68515625 -26.05078125 35.0078125 C-20.23324213 28.88321354 -15.00313716 22.54357768 -10.0625 15.6875 C-9.51956299 14.93549316 -8.97662598 14.18348633 -8.41723633 13.40869141 C-5.33268499 9.06661805 -2.5604229 4.67045815 0 0 Z " fill="#1870F5" transform="translate(826,749)"/>
<path d="M0 0 C2.475 0.99 2.475 0.99 5 2 C5 2.66 5 3.32 5 4 C6.66554932 3.98428955 6.66554932 3.98428955 8.36474609 3.96826172 C12.47587879 3.93212051 16.58699739 3.90912104 20.69824219 3.89013672 C22.47919067 3.88006569 24.26012257 3.86640815 26.04101562 3.84912109 C28.59769783 3.82492087 31.15416185 3.81352816 33.7109375 3.8046875 C34.90944839 3.78920364 34.90944839 3.78920364 36.13217163 3.77340698 C38.0895722 3.77300774 40.04643077 3.87758931 42 4 C42.66 4.66 43.32 5.32 44 6 C38.05518819 6.04934399 32.11049491 6.08569282 26.16552734 6.10986328 C24.14206873 6.11993671 22.11862472 6.13359595 20.09521484 6.15087891 C17.19104411 6.17506847 14.28706539 6.18646949 11.3828125 6.1953125 C10.02024826 6.21079636 10.02024826 6.21079636 8.63015747 6.22659302 C7.78943695 6.22674408 6.94871643 6.22689514 6.08251953 6.22705078 C4.96999313 6.23371262 4.96999313 6.23371262 3.83499146 6.24050903 C2 6 2 6 0 4 C0 2.68 0 1.36 0 0 Z " fill="#0246E4" transform="translate(593,493)"/>
<path d="M0 0 C0.33 0 0.66 0 1 0 C1.33 6.93 1.66 13.86 2 21 C2.33 21 2.66 21 3 21 C3.1953125 22.98567708 3.390625 24.97135417 3.5859375 26.95703125 C3.92665391 29.29988142 3.92665391 29.29988142 6 32 C8.71004503 32.510605 8.71004503 32.510605 11.8828125 32.51171875 C13.63271484 32.56489258 13.63271484 32.56489258 15.41796875 32.61914062 C16.64128906 32.64169922 17.86460938 32.66425781 19.125 32.6875 C20.35605469 32.72166016 21.58710937 32.75582031 22.85546875 32.79101562 C25.9035551 32.87371564 28.95134571 32.94279427 32 33 C32 33.33 32 33.66 32 34 C27.92503897 34.09893453 23.85054344 34.17149694 19.7746582 34.21972656 C18.38846662 34.23983275 17.00235975 34.26712245 15.61645508 34.30175781 C13.62358094 34.35031225 11.63008611 34.37083972 9.63671875 34.390625 C7.83787231 34.4220459 7.83787231 34.4220459 6.00268555 34.45410156 C3 34 3 34 1.10351562 32.41015625 C-0.38323127 29.16299577 -0.33831767 26.61432351 -0.29296875 23.046875 C-0.28872391 22.38665344 -0.28447906 21.72643188 -0.28010559 21.04620361 C-0.26337435 18.94704609 -0.22573551 16.84886504 -0.1875 14.75 C-0.17244584 13.32293058 -0.15875871 11.89584604 -0.14648438 10.46875 C-0.11349001 6.97885183 -0.06174743 3.4895213 0 0 Z " fill="#01146D" transform="translate(102,507)"/>
<path d="M0 0 C1.68216214 0.00031737 3.36434441 0.01165683 5.04638672 0.03173828 C6.37390457 0.03598312 6.37390457 0.03598312 7.72824097 0.04031372 C10.56098834 0.05152838 13.39342206 0.07663508 16.22607422 0.10205078 C18.14403841 0.11207893 20.06200755 0.12120507 21.97998047 0.12939453 C26.68713298 0.15147189 31.39405038 0.18601033 36.10107422 0.22705078 C36.10107422 0.55705078 36.10107422 0.88705078 36.10107422 1.22705078 C31.48107422 1.55705078 26.86107422 1.88705078 22.10107422 2.22705078 C22.10107422 2.55705078 22.10107422 2.88705078 22.10107422 3.22705078 C21.36469727 3.2416333 20.62832031 3.25621582 19.86962891 3.27124023 C16.52958418 3.34576189 13.19053441 3.44240951 9.85107422 3.53955078 C8.69220703 3.56210937 7.53333984 3.58466797 6.33935547 3.60791016 C4.66679688 3.66108398 4.66679688 3.66108398 2.96044922 3.71533203 C1.4208252 3.75460815 1.4208252 3.75460815 -0.14990234 3.79467773 C-3.21046006 4.27604964 -4.62007387 5.1794213 -6.89892578 7.22705078 C-6.08034372 2.04269774 -5.66530449 0.32991441 0 0 Z " fill="#1D57DF" transform="translate(598.89892578125,743.77294921875)"/>
<path d="M0 0 C0.10466648 8.07094823 0.03387512 15.9874678 -1 24 C-3.12232587 20.19155753 -3.2426639 17.36795019 -3 13 C-2.67 12.34 -2.34 11.68 -2 11 C-2.09723451 9.00978479 -2.09723451 9.00978479 -2.4375 6.875 C-2.623125 5.59625 -2.80875 4.3175 -3 3 C-3.68835937 3.55880859 -3.68835937 3.55880859 -4.390625 4.12890625 C-5.31101562 4.83853516 -5.31101562 4.83853516 -6.25 5.5625 C-6.85328125 6.03816406 -7.4565625 6.51382812 -8.078125 7.00390625 C-10 8 -10 8 -12.234375 7.65234375 C-12.81703125 7.43707031 -13.3996875 7.22179687 -14 7 C-10.33997803 3.94998169 -4.92148529 0 0 0 Z " fill="#34DBFB" transform="translate(1157,362)"/>
<path d="M0 0 C7.99301328 3.35886176 13.24051127 12.08317332 18.0625 19 C18.45655029 19.56372314 18.85060059 20.12744629 19.2565918 20.70825195 C22 24.7420258 22 24.7420258 22 27 C21.01 27 20.02 27 19 27 C19 26.01 19 25.02 19 24 C18.34 24 17.68 24 17 24 C16.34 22.02 15.68 20.04 15 18 C14.34 18 13.68 18 13 18 C12.67 16.35 12.34 14.7 12 13 C11.01 13 10.02 13 9 13 C7.97862543 11.34634594 6.98387706 9.67623498 6 8 C4.9630591 6.91254146 3.89895211 5.85049533 2.8125 4.8125 C1.884375 3.884375 0.95625 2.95625 0 2 C0 1.34 0 0.68 0 0 Z " fill="#224CC7" transform="translate(516,453)"/>
<path d="M0 0 C4.09081162 0.45453462 6.33266483 0.79919779 9 4 C9.66 4.33 10.32 4.66 11 5 C12 6 13 7 14 8 C16.61951666 10.19701398 18.62079221 11.39657004 22 12 C22 13.32 22 14.64 22 16 C23.32 16.66 24.64 17.32 26 18 C26 18.99 26 19.98 26 21 C25.113125 20.21625 24.22625 19.4325 23.3125 18.625 C19.77449824 15.59242707 16.12621494 12.72023475 12.4375 9.875 C11.89585205 9.45557129 11.3542041 9.03614258 10.79614258 8.60400391 C8.12250045 6.55333457 5.42067306 4.59455386 2.59765625 2.7578125 C1.74042969 2.17773438 0.88320313 1.59765625 0 1 C0 0.67 0 0.34 0 0 Z " fill="#1A54DE" transform="translate(534,419)"/>
<path d="M0 0 C0.99 0 1.98 0 3 0 C3.89749822 3.0682638 4.11711768 5.79269976 4.09765625 8.984375 C4.09282227 10.38623047 4.09282227 10.38623047 4.08789062 11.81640625 C4.07951172 12.78449219 4.07113281 13.75257813 4.0625 14.75 C4.05798828 15.73355469 4.05347656 16.71710937 4.04882812 17.73046875 C4.03706483 20.15370791 4.02062684 22.57682273 4 25 C3.67 25 3.34 25 3 25 C2.95101562 24.01257813 2.90203125 23.02515625 2.8515625 22.0078125 C2.77679687 20.72648438 2.70203125 19.44515625 2.625 18.125 C2.55539062 16.84882812 2.48578125 15.57265625 2.4140625 14.2578125 C2.32758894 10.91938301 2.32758894 10.91938301 0 9 C-0.62931533 6.32404177 -0.78130812 3.75551768 -1 1 C-0.67 0.67 -0.34 0.34 0 0 Z " fill="#3764CB" transform="translate(550,522)"/>
<path d="M0 0 C4.69350812 1.24239921 6.77517676 3.77007922 9.66796875 7.44140625 C10.93649295 9.13049223 10.93649295 9.13049223 13 10 C16.15221927 16.18768968 16.15221927 16.18768968 15.58203125 19.23046875 C15.29392578 20.10638672 15.29392578 20.10638672 15 21 C14.69707031 20.41992188 14.39414062 19.83984375 14.08203125 19.2421875 C10.10937487 11.8347113 6.2818912 6.40300398 -1 2 C-0.67 1.34 -0.34 0.68 0 0 Z " fill="#1641AE" transform="translate(454,505)"/>
<path d="M0 0 C0.33 0 0.66 0 1 0 C1.10349817 6.41688675 0.74507544 12.62694402 0 19 C-3.77545388 17.90931332 -6.47043472 17.0916909 -9 14 C-8.05125 13.7525 -7.1025 13.505 -6.125 13.25 C-3.02922769 12.30709336 -3.02922769 12.30709336 -1.6875 10.375 C-0.69263853 6.93820582 -0.35605618 3.56056178 0 0 Z " fill="#30BCF9" transform="translate(1148,455)"/>
<path d="M0 0 C0.33 0 0.66 0 1 0 C1.02712153 1.916588 1.04645097 3.8332873 1.0625 5.75 C1.07410156 6.81734375 1.08570313 7.8846875 1.09765625 8.984375 C1 12 1 12 0.52734375 13.78125 C-0.1639342 16.68973796 -0.33181505 19.53328741 -0.53515625 22.515625 C-0.62216797 23.76601563 -0.70917969 25.01640625 -0.79882812 26.3046875 C-0.88583984 27.60664063 -0.97285156 28.90859375 -1.0625 30.25 C-1.15396895 31.58075175 -1.24576229 32.91148124 -1.33789062 34.2421875 C-1.56178768 37.49458677 -1.7823637 40.74717678 -2 44 C-2.33 44 -2.66 44 -3 44 C-3.13029756 36.06632647 -2.93576182 28.17419973 -2.5625 20.25 C-2.52326416 19.35635742 -2.48402832 18.46271484 -2.44360352 17.54199219 C-2.40162842 16.70829102 -2.35965332 15.87458984 -2.31640625 15.015625 C-2.27974854 14.26571289 -2.24309082 13.51580078 -2.20532227 12.74316406 C-2 11 -2 11 -1 10 C-0.76712992 8.31816052 -0.58735834 6.6287584 -0.4375 4.9375 C-0.31181641 3.55884766 -0.31181641 3.55884766 -0.18359375 2.15234375 C-0.12300781 1.44207031 -0.06242187 0.73179687 0 0 Z " fill="#45D8FB" transform="translate(1154,386)"/>
<path d="M0 0 C0.33 0 0.66 0 1 0 C1.34375 2.10546875 1.34375 2.10546875 1 5 C-0.77526418 7.29689213 -2.4758999 9.26602041 -4.5 11.3125 C-5.02464844 11.86228516 -5.54929687 12.41207031 -6.08984375 12.97851562 C-7.38221566 14.32963171 -8.68968073 15.66628217 -10 17 C-10.99 16.67 -11.98 16.34 -13 16 C-12.48050781 15.43152344 -11.96101562 14.86304688 -11.42578125 14.27734375 C-8.11654024 10.61332274 -4.88779183 6.99262475 -2.0625 2.9375 C-1.381875 1.968125 -0.70125 0.99875 0 0 Z " fill="#1E51D6" transform="translate(571,783)"/>
<path d="M0 0 C0.66 0.33 1.32 0.66 2 1 C0.453125 2.984375 0.453125 2.984375 -2 5 C-5.453125 5.390625 -5.453125 5.390625 -9.25 5.25 C-10.51328125 5.21390625 -11.7765625 5.1778125 -13.078125 5.140625 C-14.52445313 5.07101562 -14.52445313 5.07101562 -16 5 C-16.33 5.99 -16.66 6.98 -17 8 C-17.66 8 -18.32 8 -19 8 C-18.34 6.35 -17.68 4.7 -17 3 C-16.19175781 2.95101562 -15.38351563 2.90203125 -14.55078125 2.8515625 C-13.48214844 2.77679687 -12.41351563 2.70203125 -11.3125 2.625 C-9.72888672 2.52058594 -9.72888672 2.52058594 -8.11328125 2.4140625 C-5.09095643 2.01209709 -2.80546014 1.13004524 0 0 Z " fill="#223479" transform="translate(237,738)"/>
<path d="M0 0 C0.99 0.66 1.98 1.32 3 2 C-0.635389 8.96695586 -4.20299138 15.74935241 -9 22 C-9.66 21.67 -10.32 21.34 -11 21 C-11 20.34 -11 19.68 -11 19 C-10.38125 18.401875 -9.7625 17.80375 -9.125 17.1875 C-6.878516 14.87494294 -6.0093366 13.02800981 -5 10 C-4.34 10 -3.68 10 -3 10 C-2.67 8.35 -2.34 6.7 -2 5 C-1.34 5 -0.68 5 0 5 C0 3.35 0 1.7 0 0 Z " fill="#1341B7" transform="translate(547,753)"/>
<path d="M0 0 C3.48771905 3.19420423 4.9103287 6.78128962 6.75 11.0625 C7.07871094 11.79533203 7.40742187 12.52816406 7.74609375 13.28320312 C8.56358346 15.16135987 9.28925744 17.07890468 10 19 C9.67 19.66 9.34 20.32 9 21 C8.8453125 20.0409375 8.8453125 20.0409375 8.6875 19.0625 C8.460625 18.381875 8.23375 17.70125 8 17 C7.01 16.67 6.02 16.34 5 16 C4.26480478 14.02416285 3.60927518 12.01822402 3 10 C2.195625 8.453125 2.195625 8.453125 1.375 6.875 C0 4 0 4 0 0 Z " fill="#2551C7" transform="translate(547,646)"/>
<path d="M0 0 C0.33 0 0.66 0 1 0 C1 2.97 1 5.94 1 9 C0.34 9 -0.32 9 -1 9 C-0.896875 9.845625 -0.79375 10.69125 -0.6875 11.5625 C-1.08670315 15.95373467 -2.79891727 18.95220856 -6 22 C-6.99 22 -7.98 22 -9 22 C-7.91596851 19.76385776 -6.7704557 17.60240736 -5.52734375 15.44921875 C-2.52277787 10.22998514 -0.26929237 6.05907841 0 0 Z " fill="#284FB4" transform="translate(480,707)"/>
<path d="M0 0 C0.765625 1.65625 0.765625 1.65625 1 4 C-0.765625 6.65625 -0.765625 6.65625 -3.25 9.5 C-4.05953125 10.4384375 -4.8690625 11.376875 -5.703125 12.34375 C-6.46109375 13.2203125 -7.2190625 14.096875 -8 15 C-9.01405257 16.32267727 -10.02047039 17.65155663 -11 19 C-11.66 18.67 -12.32 18.34 -13 18 C-11.02241852 15.18638228 -9.04266999 12.37429644 -7.0625 9.5625 C-6.49853516 8.76005859 -5.93457031 7.95761719 -5.35351562 7.13085938 C-4.81533203 6.36708984 -4.27714844 5.60332031 -3.72265625 4.81640625 C-3.22515869 4.10943604 -2.72766113 3.40246582 -2.21508789 2.67407227 C-1 1 -1 1 0 0 Z " fill="#1567F5" transform="translate(1064,440)"/>
<path d="M0 0 C4.12969572 6.19454359 4.30062652 12.78496357 4 20 C3.34 19.67 2.68 19.34 2 19 C1.40234375 16.6015625 1.40234375 16.6015625 0.9375 13.625 C0.45544672 10.60519514 -0.03117362 7.90647913 -1 5 C-0.5625 2.3125 -0.5625 2.3125 0 0 Z " fill="#2B58CA" transform="translate(557,668)"/>
<path d="M0 0 C0.33 0 0.66 0 1 0 C1.12375 0.7425 1.2475 1.485 1.375 2.25 C1.8099032 4.92842505 1.8099032 4.92842505 3.09375 6.625 C4.52362899 10.37226907 3.68814043 13.84685429 3.125 17.75 C2.96837891 18.93916016 2.96837891 18.93916016 2.80859375 20.15234375 C2.5500661 22.10305241 2.27649734 24.05175719 2 26 C1.67 26 1.34 26 1 26 C0.67 17.42 0.34 8.84 0 0 Z " fill="#3F89F5" transform="translate(739,602)"/>
<path d="M0 0 C1.8125 0.125 1.8125 0.125 4 1 C5.5 3.5 5.5 3.5 7 7 C7.36609375 7.75667969 7.7321875 8.51335937 8.109375 9.29296875 C8.48578125 10.08316406 8.8621875 10.87335938 9.25 11.6875 C9.60578125 12.43386719 9.9615625 13.18023437 10.328125 13.94921875 C11 16 11 16 10 19 C8.51762714 16.39761208 7.03899869 13.79321772 5.5625 11.1875 C4.93118164 10.08051758 4.93118164 10.08051758 4.28710938 8.95117188 C3.88427734 8.23896484 3.48144531 7.52675781 3.06640625 6.79296875 C2.69459229 6.1383667 2.32277832 5.48376465 1.93969727 4.80932617 C1 3 1 3 0 0 Z " fill="#1857E6" transform="translate(574,455)"/>
<path d="M0 0 C3.0625 0.25 3.0625 0.25 6.0625 2.25 C8.38637947 2.64387788 10.72043749 2.98486085 13.0625 3.25 C13.0625 3.91 13.0625 4.57 13.0625 5.25 C6.92095775 4.66509121 1.05570151 3.70933748 -4.9375 2.25 C-2.9375 0.25 -2.9375 0.25 0 0 Z " fill="#0A4EE7" transform="translate(643.9375,497.75)"/>
<path d="M0 0 C0.66 0 1.32 0 2 0 C1.43102154 4.32265577 -0.12789755 7.18143334 -2.5 10.8125 C-3.44359375 12.27623047 -3.44359375 12.27623047 -4.40625 13.76953125 C-5.19515625 14.87361328 -5.19515625 14.87361328 -6 16 C-6.33 16 -6.66 16 -7 16 C-7 14.35 -7 12.7 -7 11 C-6.34 11 -5.68 11 -5 11 C-5 10.34 -5 9.68 -5 9 C-4.34 9 -3.68 9 -3 9 C-2.814375 8.1646875 -2.814375 8.1646875 -2.625 7.3125 C-1.94023145 4.77885636 -1.00866237 2.42078968 0 0 Z " fill="#103FB9" transform="translate(537,595)"/>
<path d="M0 0 C0.33 0.99 0.66 1.98 1 3 C-4.16923077 7.06153846 -4.16923077 7.06153846 -8.375 6.75 C-9.24125 6.5025 -10.1075 6.255 -11 6 C-8.84733158 3.84733158 -7.15226256 3.06525538 -4.375 1.875 C-3.55773437 1.52179687 -2.74046875 1.16859375 -1.8984375 0.8046875 C-1.27195312 0.53914062 -0.64546875 0.27359375 0 0 Z " fill="#2043A9" transform="translate(462,736)"/>
<path d="M0 0 C0.33 0 0.66 0 1 0 C0.97679688 1.12019531 0.95359375 2.24039063 0.9296875 3.39453125 C0.91092763 4.86718084 0.89272766 6.33983763 0.875 7.8125 C0.85824219 8.55048828 0.84148437 9.28847656 0.82421875 10.04882812 C0.78925372 13.91246426 0.80602445 15.70903668 3 19 C2.01 19 1.02 19 0 19 C-1 18 -1 18 -1.1328125 15.234375 C-1.13023438 14.08453125 -1.12765625 12.9346875 -1.125 11.75 C-1.12757812 10.61046875 -1.13015625 9.4709375 -1.1328125 8.296875 C-1.01609587 5.39955624 -0.66645245 2.81391036 0 0 Z " fill="#0AA6FA" transform="translate(100,638)"/>
<path d="M0 0 C3.44428265 1.44781793 5.36130962 3.27694609 7.75 6.125 C8.36359375 6.84945313 8.9771875 7.57390625 9.609375 8.3203125 C10.29773438 9.15175781 10.29773438 9.15175781 11 10 C10.34 10.66 9.68 11.32 9 12 C7.86966702 10.75482035 6.74594964 9.50363348 5.625 8.25 C4.99851562 7.55390625 4.37203125 6.8578125 3.7265625 6.140625 C2.12494817 4.15491312 1.03479932 2.32045907 0 0 Z " fill="#205CE4" transform="translate(561,440)"/>
<path d="M0 0 C2 2 2 2 2.1953125 4.8203125 C2.16050781 6.45613281 2.16050781 6.45613281 2.125 8.125 C2.10695313 9.22070312 2.08890625 10.31640625 2.0703125 11.4453125 C2.04710937 12.28835938 2.02390625 13.13140625 2 14 C1.01 14.33 0.02 14.66 -1 15 C-0.67 10.05 -0.34 5.1 0 0 Z " fill="#0865F6" transform="translate(741,618)"/>
<path d="M0 0 C2.475 0.99 2.475 0.99 5 2 C5 2.66 5 3.32 5 4 C8.96 4 12.92 4 17 4 C17 4.33 17 4.66 17 5 C14.54220024 5.22126178 12.08472352 5.42750395 9.625 5.625 C8.57699219 5.72167969 8.57699219 5.72167969 7.5078125 5.8203125 C5.67630889 5.96119739 3.83687252 5.98761659 2 6 C1.34 5.34 0.68 4.68 0 4 C0 2.68 0 1.36 0 0 Z " fill="#1054E1" transform="translate(593,493)"/>
<path d="M0 0 C0.66 0 1.32 0 2 0 C1.74500159 1.79398884 1.47046186 3.58520875 1.1875 5.375 C1.03667969 6.37273438 0.88585937 7.37046875 0.73046875 8.3984375 C0 11 0 11 -3 13 C-3 11.02 -3 9.04 -3 7 C-2.34 7 -1.68 7 -1 7 C-1.020625 6.030625 -1.04125 5.06125 -1.0625 4.0625 C-1 1 -1 1 0 0 Z " fill="#1343C0" transform="translate(548,567)"/>
<path d="M0 0 C0.33 0 0.66 0 1 0 C0.979375 0.969375 0.95875 1.93875 0.9375 2.9375 C0.92849192 7.33344515 1.44690406 11.64436949 2 16 C0.515625 14.8828125 0.515625 14.8828125 -1 13 C-1.328125 10.1171875 -1.328125 10.1171875 -1.25 6.875 C-1.23453125 5.79992187 -1.2190625 4.72484375 -1.203125 3.6171875 C-1 1 -1 1 0 0 Z " fill="#0C226B" transform="translate(215,524)"/>
<path d="M0 0 C1 4 1 4 0.07421875 5.921875 C-0.61220703 6.82679688 -0.61220703 6.82679688 -1.3125 7.75 C-1.76238281 8.36359375 -2.21226563 8.9771875 -2.67578125 9.609375 C-3.11277344 10.06828125 -3.54976562 10.5271875 -4 11 C-4.66 11 -5.32 11 -6 11 C-6.33 11.99 -6.66 12.98 -7 14 C-7.66 13.67 -8.32 13.34 -9 13 C-6.03 8.71 -3.06 4.42 0 0 Z " fill="#1A51E9" transform="translate(1032,484)"/>
<path d="M0 0 C3.35861695 1.43409972 5.35874939 3.19369321 7.75 5.9375 C8.36359375 6.62714844 8.9771875 7.31679688 9.609375 8.02734375 C11 10 11 10 11 13 C10.34 13 9.68 13 9 13 C8.5875 12.29875 8.175 11.5975 7.75 10.875 C6.22073684 8.36263909 4.90103071 6.81257529 2.8125 4.8125 C1.884375 3.884375 0.95625 2.95625 0 2 C0 1.34 0 0.68 0 0 Z " fill="#1841BF" transform="translate(516,453)"/>
<path d="M0 0 C0.33 0.99 0.66 1.98 1 3 C-2.44833324 5.05257931 -4.31661591 6.0632763 -8.375 5.6875 C-9.24125 5.460625 -10.1075 5.23375 -11 5 C-7.41247258 3.13448574 -3.72187807 1.57464072 0 0 Z " fill="#1D42A8" transform="translate(451,575)"/>
<path d="M0 0 C0.33 0 0.66 0 1 0 C1.25287193 6.06892629 0.69832609 11.16200408 -1 17 C-2.98362069 14.08291076 -2.9876191 12.87619096 -2.625 9.25 C-2.41875 8.1775 -2.2125 7.105 -2 6 C-1.34 6 -0.68 6 0 6 C0 4.02 0 2.04 0 0 Z " fill="#2B57C6" transform="translate(552,550)"/>
<path d="M0 0 C0.99 0.33 1.98 0.66 3 1 C-0.515625 5.6875 -0.515625 5.6875 -2 7 C-3.32 7 -4.64 7 -6 7 C-4.75686537 3.27059611 -3.23014784 2.15343189 0 0 Z " fill="#0E3DC5" transform="translate(541,817)"/>
<path d="M0 0 C0 0.99 0 1.98 0 3 C-3 5.1875 -3 5.1875 -6 7 C-6.33 6.01 -6.66 5.02 -7 4 C-4.82575883 1.49962266 -3.26954202 0.56371414 0 0 Z " fill="#083EC7" transform="translate(562,799)"/>
<path d="M0 0 C0.66 0.66 1.32 1.32 2 2 C-0.74395564 4.94721162 -3.38337216 7.19168608 -7 9 C-7.66 8.67 -8.32 8.34 -9 8 C-6.03 5.36 -3.06 2.72 0 0 Z " fill="#1769F4" transform="translate(797,787)"/>
<path d="M0 0 C0.99 0.33 1.98 0.66 3 1 C0.69 3.31 -1.62 5.62 -4 8 C-4.99 7.34 -5.98 6.68 -7 6 C-5.90716423 4.96704564 -4.80029421 3.94892165 -3.6875 2.9375 C-3.07261719 2.36902344 -2.45773437 1.80054688 -1.82421875 1.21484375 C-0.92123047 0.61349609 -0.92123047 0.61349609 0 0 Z " fill="#0F36A4" transform="translate(470,729)"/>
<path d="M0 0 C4.09081162 0.45453462 6.33266483 0.79919779 9 4 C9.66 4.33 10.32 4.66 11 5 C11 5.66 11 6.32 11 7 C6.89188572 5.55007731 3.53144334 3.54592427 0 1 C0 0.67 0 0.34 0 0 Z " fill="#1449D9" transform="translate(534,419)"/>
<path d="M0 0 C0.66 1.32 1.32 2.64 2 4 C1.34 4 0.68 4 0 4 C0.3403125 4.86625 0.3403125 4.86625 0.6875 5.75 C1 8 1 8 -0.3125 10.25 C-0.869375 10.8275 -1.42625 11.405 -2 12 C-2.66 12 -3.32 12 -4 12 C-2.66666667 8 -1.33333333 4 0 0 Z " fill="#317DF7" transform="translate(732,664)"/>
<path d="M0 0 C1.32 0.33 2.64 0.66 4 1 C1.8125 3.5625 1.8125 3.5625 -1 6 C-3.8125 5.8125 -3.8125 5.8125 -6 5 C-6 4.67 -6 4.34 -6 4 C-4.35 3.67 -2.7 3.34 -1 3 C-0.67 2.01 -0.34 1.02 0 0 Z " fill="#193175" transform="translate(299,574)"/>
<path d="M0 0 C3.317124 4.422832 3.30466674 5.71910976 3 11 C2.01 11.33 1.02 11.66 0 12 C0 8.04 0 4.08 0 0 Z " fill="#103DC0" transform="translate(549,511)"/>
<path d="M0 0 C0.94875 0.04125 1.8975 0.0825 2.875 0.125 C2.875 0.785 2.875 1.445 2.875 2.125 C3.865 2.125 4.855 2.125 5.875 2.125 C5.875 2.785 5.875 3.445 5.875 4.125 C2.245 3.465 -1.385 2.805 -5.125 2.125 C-3.125 0.125 -3.125 0.125 0 0 Z " fill="#1439A0" transform="translate(438.125,497.875)"/>
<path d="M0 0 C0.33 0.66 0.66 1.32 1 2 C-0.07107117 2.86949317 -1.15745944 3.72014205 -2.25 4.5625 C-2.85328125 5.03816406 -3.4565625 5.51382812 -4.078125 6.00390625 C-6 7 -6 7 -8.234375 6.65234375 C-8.81703125 6.43707031 -9.3996875 6.22179687 -10 6 C-6.87567603 3.47650757 -3.61939504 1.72743854 0 0 Z " fill="#13D4FB" transform="translate(1153,363)"/>
<path d="M0 0 C0.99 0.33 1.98 0.66 3 1 C0.8125 3.5625 0.8125 3.5625 -2 6 C-4.8125 5.8125 -4.8125 5.8125 -7 5 C-6.401875 4.731875 -5.80375 4.46375 -5.1875 4.1875 C-3.02775192 3.01506533 -1.64209744 1.80630718 0 0 Z " fill="#09A5F4" transform="translate(288,667)"/>
<path d="M0 0 C0.8971875 0.309375 0.8971875 0.309375 1.8125 0.625 C0.71804162 1.49157116 -0.38847781 2.34292724 -1.5 3.1875 C-2.11488281 3.66316406 -2.72976563 4.13882812 -3.36328125 4.62890625 C-3.96527344 4.95761719 -4.56726562 5.28632813 -5.1875 5.625 C-6.1775 5.295 -7.1675 4.965 -8.1875 4.625 C-3.2421875 -0.55580357 -3.2421875 -0.55580357 0 0 Z " fill="#176BF3" transform="translate(1058.1875,414.375)"/>
<path d="M0 0 C2.96404505 2.80804268 5.44499019 5.18315774 7 9 C6.34 9 5.68 9 5 9 C0 3.64285714 0 3.64285714 0 0 Z " fill="#204CC5" transform="translate(532,625)"/>
<path d="M0 0 C0.33 1.32 0.66 2.64 1 4 C-1.97 6.475 -1.97 6.475 -5 9 C-5.66 8.67 -6.32 8.34 -7 8 C-4.69 5.36 -2.38 2.72 0 0 Z " fill="#1942B0" transform="translate(465,562)"/>
<path d="M0 0 C0.33 0.99 0.66 1.98 1 3 C-1.97 5.475 -1.97 5.475 -5 8 C-5.66 7.67 -6.32 7.34 -7 7 C-4.69 4.69 -2.38 2.38 0 0 Z " fill="#204CCF" transform="translate(554,804)"/>
<path d="M0 0 C4.67692308 1.47692308 4.67692308 1.47692308 6.3125 4.125 C6.539375 4.74375 6.76625 5.3625 7 6 C6.34 6.66 5.68 7.32 5 8 C3 5 3 5 3 2 C2.01 2 1.02 2 0 2 C0 1.34 0 0.68 0 0 Z " fill="#182C78" transform="translate(294,701)"/>
<path d="M0 0 C3.3 0 6.6 0 10 0 C10 0.66 10 1.32 10 2 C5.94568308 3.15837626 3.78187881 2.83691257 0 1 C0 0.67 0 0.34 0 0 Z " fill="#0A63F4" transform="translate(178,552)"/>
<path d="M0 0 C2.1640625 0.2421875 2.1640625 0.2421875 4.625 0.875 C5.44226563 1.07867187 6.25953125 1.28234375 7.1015625 1.4921875 C8.04128906 1.74355469 8.04128906 1.74355469 9 2 C5.72079119 3.95881942 5.23826396 4.05559492 1.25 3.125 C0.1775 2.75375 -0.895 2.3825 -2 2 C-1.34 1.34 -0.68 0.68 0 0 Z " fill="#1B61EB" transform="translate(657,502)"/>
<path d="M0 0 C-1.625 2 -1.625 2 -4 4 C-7.25 4.25 -7.25 4.25 -10 4 C-6.58908673 0.88145073 -4.68377325 -0.53528837 0 0 Z " fill="#125AE8" transform="translate(762,819)"/>
<path d="M0 0 C0.66 0.33 1.32 0.66 2 1 C-0.97 4.96 -0.97 4.96 -4 9 C-4.33 7.68 -4.66 6.36 -5 5 C-4.360625 4.731875 -3.72125 4.46375 -3.0625 4.1875 C-0.66868314 3.11332248 -0.66868314 3.11332248 0 0 Z " fill="#143FB4" transform="translate(535,775)"/>
<path d="M0 0 C0.66 0.33 1.32 0.66 2 1 C0.35 3.64 -1.3 6.28 -3 9 C-3.33 7.68 -3.66 6.36 -4 5 C-2.0625 2.25 -2.0625 2.25 0 0 Z " fill="#0E46D7" transform="translate(576,777)"/>
<path d="M0 0 C3.3 0 6.6 0 10 0 C10 0.99 10 1.98 10 3 C6.7 2.34 3.4 1.68 0 1 C0 0.67 0 0.34 0 0 Z " fill="#1053E7" transform="translate(640,743)"/>
<path d="M0 0 C0.66 0.33 1.32 0.66 2 1 C1.505 1.5775 1.01 2.155 0.5 2.75 C-1.36980013 5.10400629 -1.36980013 5.10400629 -1 9 C-2.32 9 -3.64 9 -5 9 C-4.1875 6.0625 -4.1875 6.0625 -3 3 C-2.01 2.67 -1.02 2.34 0 2 C0 1.34 0 0.68 0 0 Z " fill="#113EB1" transform="translate(528,611)"/>
<path d="M0 0 C0.99 0.33 1.98 0.66 3 1 C-0.465 3.97 -0.465 3.97 -4 7 C-3.6875 4.625 -3.6875 4.625 -3 2 C-2.01 1.34 -1.02 0.68 0 0 Z " fill="#0A84F3" transform="translate(232,608)"/>
<path d="M0 0 C1.2380014 3.57644848 0.74926071 6.33694766 0 10 C-0.66 10 -1.32 10 -2 10 C-2.33 8.68 -2.66 7.36 -3 6 C-2.34 6 -1.68 6 -1 6 C-1.0309375 4.7934375 -1.0309375 4.7934375 -1.0625 3.5625 C-1 1 -1 1 0 0 Z " fill="#0637B7" transform="translate(552,546)"/>
<path d="M0 0 C0.66 0.33 1.32 0.66 2 1 C1.67 1.99 1.34 2.98 1 4 C0.01 4 -0.98 4 -2 4 C-2 4.66 -2 5.32 -2 6 C-2.99 6.33 -3.98 6.66 -5 7 C-3.70700306 4.11562221 -2.34058637 2.12780579 0 0 Z " fill="#2F74F4" transform="translate(161,552)"/>
<path d="M0 0 C0.99 1.32 1.98 2.64 3 4 C2.1875 5.9375 2.1875 5.9375 1 8 C0.01 8.33 -0.98 8.66 -2 9 C-1.34 6.03 -0.68 3.06 0 0 Z " fill="#355ABB" transform="translate(471,547)"/>
<path d="M0 0 C2.475 0.495 2.475 0.495 5 1 C5.33 1.99 5.66 2.98 6 4 C4.68 4 3.36 4 2 4 C1.34 2.68 0.68 1.36 0 0 Z " fill="#162A70" transform="translate(102,536)"/>
<path d="M0 0 C0.66 0.33 1.32 0.66 2 1 C1.01 2.485 1.01 2.485 0 4 C-3.625 4.6875 -3.625 4.6875 -7 5 C-4.702779 3.25728062 -2.40133271 1.60088848 0 0 Z " fill="#256DF7" transform="translate(682,728)"/>
<path d="M0 0 C2.15634036 2.15634036 3.47793991 4.37098712 5 7 C2.5625 6.25 2.5625 6.25 0 5 C-0.875 2.9375 -0.875 2.9375 -1 1 C-0.67 0.67 -0.34 0.34 0 0 Z " fill="#162C72" transform="translate(336,653)"/>
<path d="M0 0 C2.76223278 2.76223278 2.57856291 5.20706617 3 9 C2.67 8.34 2.34 7.68 2 7 C1.34 7 0.68 7 0 7 C-1.04449911 3.86650268 -0.93423645 3.01031744 0 0 Z " fill="#3662D0" transform="translate(548,504)"/>
<path d="M0 0 C1.32 0.33 2.64 0.66 4 1 C4.33 2.98 4.66 4.96 5 7 C3.29115995 5.37660195 1.62553283 3.70680947 0 2 C0 1.34 0 0.68 0 0 Z " fill="#0945DE" transform="translate(574,455)"/>
</svg>
